<?xml version="1.0" encoding="UTF-8"?>
<!DOCTYPE svg PUBLIC "-//W3C//DTD SVG 1.1//EN" "http://www.w3.org/Graphics/SVG/1.1/DTD/svg11.dtd">
<svg xmlns="http://www.w3.org/2000/svg" version="1.1" width="115px" height="115px" style="shape-rendering:geometricPrecision; text-rendering:geometricPrecision; image-rendering:optimizeQuality; fill-rule:evenodd; clip-rule:evenodd" xmlns:xlink="http://www.w3.org/1999/xlink">
<g><path style="opacity:0.916" fill="#fefefe" d="M 47.5,-0.5 C 50.8333,-0.5 54.1667,-0.5 57.5,-0.5C 58.4227,3.06405 58.756,6.73072 58.5,10.5C 35.1042,11.7348 19.6042,23.4014 12,45.5C 10.6159,51.1087 10.2825,56.7753 11,62.5C 14.59,59.9536 18.4234,57.7869 22.5,56C 24.1131,45.4477 29.1131,36.781 37.5,30C 46.0448,24.719 55.2115,23.219 65,25.5C 65.4997,17.1733 65.6664,8.83999 65.5,0.5C 83.6275,2.81875 97.4609,11.8187 107,27.5C 110.417,33.604 112.917,39.9373 114.5,46.5C 114.5,53.8333 114.5,61.1667 114.5,68.5C 112.925,75.0415 110.091,81.0415 106,86.5C 102.67,85.0952 99.8362,83.0952 97.5,80.5C 109.736,52.0939 102.569,30.0939 76,14.5C 75.3333,19.5 75.3333,24.5 76,29.5C 92.7923,44.6022 94.6256,61.2689 81.5,79.5C 88.1667,84.1667 94.8333,88.8333 101.5,93.5C 98.6896,98.1439 95.0229,101.977 90.5,105C 83.4464,109.032 76.1131,112.199 68.5,114.5C 61.1667,114.5 53.8333,114.5 46.5,114.5C 28.9226,110.709 15.5892,101.042 6.5,85.5C 9.53321,83.3024 12.6999,81.3024 16,79.5C 33.3377,104.302 55.5043,109.802 82.5,96C 83.4506,95.2825 83.6172,94.4491 83,93.5C 79.2088,91.355 75.3755,89.355 71.5,87.5C 49.6407,94.2788 34.1407,87.2788 25,66.5C 18.0321,70.4861 11.0321,74.4861 4,78.5C 1.98149,74.6012 0.48149,70.6012 -0.5,66.5C -0.5,59.8333 -0.5,53.1667 -0.5,46.5C 5.61686,20.7163 21.6169,5.0496 47.5,-0.5 Z M 52.5,44.5 C 62.2165,43.3909 68.2165,47.5576 70.5,57C 69.3563,64.8104 64.8563,69.3104 57,70.5C 47.0279,68.5694 43.0279,62.5694 45,52.5C 47.0282,49.3078 49.5282,46.6411 52.5,44.5 Z"/></g>
</svg>
