<?xml version="1.0" encoding="UTF-8"?>
<svg version="1.1" xmlns="http://www.w3.org/2000/svg" width="1914" height="1079">
<path d="M0 0 C631.62 0 1263.24 0 1914 0 C1914 356.07 1914 712.14 1914 1079 C1282.38 1079 650.76 1079 0 1079 C0 722.93 0 366.86 0 0 Z " fill="#41326E" transform="translate(0,0)"/>
<path d="M0 0 C294.69 0 589.38 0 893 0 C893 356.07 893 712.14 893 1079 C584.12 1079 275.24 1079 -43 1079 C-36.26136476 1071.13825889 -36.26136476 1071.13825889 -33.51171875 1068.6328125 C-32.89619141 1068.065625 -32.28066406 1067.4984375 -31.64648438 1066.9140625 C-31.00001953 1066.32367187 -30.35355469 1065.73328125 -29.6875 1065.125 C-22.93045723 1058.88187316 -16.38269634 1052.46202351 -9.9362793 1045.89892578 C-6.72850232 1042.65079202 -3.49217532 1039.5098874 -0.03125 1036.53125 C4.37203182 1032.73857952 8.42986924 1028.64426794 12.5 1024.5 C16.54948464 1020.37675426 20.58358948 1016.299883 24.96875 1012.53125 C29.55178661 1008.58812608 33.76340089 1004.30889602 38 1000 C42.84640404 995.07089282 47.72997619 990.31027789 52.97265625 985.8046875 C56.81998057 982.37990169 60.39014685 978.67145474 64 975 C68.84640404 970.07089282 73.72997619 965.31027789 78.97265625 960.8046875 C82.81998057 957.37990169 86.39014685 953.67145474 90 950 C94.87658532 945.0401965 99.79070492 940.24490656 105.06640625 935.7109375 C108.36334205 932.79364886 111.42097038 929.6438513 114.5 926.5 C118.19537948 922.72682306 121.89902764 919.03758071 125.90625 915.59375 C130.50730122 911.62640322 134.74270203 907.32994811 139 903 C143.84640404 898.07089282 148.72997619 893.31027789 153.97265625 888.8046875 C157.81998057 885.37990169 161.39014685 881.67145474 165 878 C169.84640404 873.07089282 174.72997619 868.31027789 179.97265625 863.8046875 C183.81998057 860.37990169 187.39014685 856.67145474 191 853 C195.85646346 848.06066174 200.75021776 843.28848859 206.00390625 838.7734375 C209.66795488 835.51809879 213.06705043 831.99548052 216.5 828.5 C220.54948464 824.37675426 224.58358948 820.299883 228.96875 816.53125 C233.55178661 812.58812608 237.76340089 808.30889602 242 804 C246.84640404 799.07089282 251.72997619 794.31027789 256.97265625 789.8046875 C260.81998057 786.37990169 264.39014685 782.67145474 268 779 C272.85646346 774.06066174 277.75021776 769.28848859 283.00390625 764.7734375 C286.66795488 761.51809879 290.06705043 757.99548052 293.5 754.5 C297.54948464 750.37675426 301.58358948 746.299883 305.96875 742.53125 C310.55178661 738.58812608 314.76340089 734.30889602 319 730 C323.84640404 725.07089282 328.72997619 720.31027789 333.97265625 715.8046875 C337.81998057 712.37990169 341.39014685 708.67145474 345 705 C349.84640404 700.07089282 354.72997619 695.31027789 359.97265625 690.8046875 C363.81998057 687.37990169 367.39014685 683.67145474 371 680 C375.85646346 675.06066174 380.75021776 670.28848859 386.00390625 665.7734375 C389.66795488 662.51809879 393.06705043 658.99548052 396.5 655.5 C400.54948464 651.37675426 404.58358948 647.299883 408.96875 643.53125 C413.55178661 639.58812608 417.76340089 635.30889602 422 631 C426.85646346 626.06066174 431.75021776 621.28848859 437.00390625 616.7734375 C440.66795488 613.51809879 444.06705043 609.99548052 447.5 606.5 C452.18327224 601.73142226 456.91966352 597.15024034 461.98632812 592.79101562 C465.65489554 589.52809 469.06112599 586.00151288 472.5 582.5 C476.54948464 578.37675426 480.58358948 574.299883 484.96875 570.53125 C489.55178661 566.58812608 493.76340089 562.30889602 498 558 C503.00711408 552.90744028 508.00360949 547.99708708 513.56640625 543.5078125 C515.34452273 541.98439933 515.34452273 541.98439933 515 539 C513.37073317 536.97327701 511.7311477 535.12237812 509.9375 533.25 C509.40745361 532.68579346 508.87740723 532.12158691 508.33129883 531.5402832 C503.44535087 526.37775884 498.41718697 521.35354151 493.34155273 516.37792969 C490.30429687 513.38478763 487.39357458 510.34776113 484.61328125 507.11328125 C480.6383869 502.50658615 476.33652467 498.26376419 472 494 C467.07089282 489.15359596 462.31027789 484.27002381 457.8046875 479.02734375 C454.37990169 475.18001943 450.67145474 471.60985315 447 468 C442.05042963 463.13347611 437.26669814 458.22953931 432.7421875 452.96484375 C429.65601949 449.48425517 426.31960733 446.25601331 423 443 C419.05182087 439.12745648 415.16875641 435.25872002 411.5625 431.0625 C407.60725102 426.4704649 403.31942344 422.24694989 399 418 C394.06066174 413.14353654 389.28848859 408.24978224 384.7734375 402.99609375 C381.51809879 399.33204512 377.99548052 395.93294957 374.5 392.5 C369.73142226 387.81672776 365.15024034 383.08033648 360.79101562 378.01367188 C357.52809 374.34510446 354.00151288 370.93887401 350.5 367.5 C345.71096048 362.79663202 341.10665676 358.03982277 336.72851562 352.95117188 C333.80374304 349.64964892 330.64987444 346.58492858 327.5 343.5 C323.72682306 339.80462052 320.03758071 336.10097236 316.59375 332.09375 C312.62640322 327.49269878 308.32994811 323.25729797 304 319 C299.06066174 314.14353654 294.28848859 309.24978224 289.7734375 303.99609375 C286.51809879 300.33204512 282.99548052 296.93294957 279.5 293.5 C275.37675426 289.45051536 271.299883 285.41641052 267.53125 281.03125 C263.58812608 276.44821339 259.30889602 272.23659911 255 268 C250.06066174 263.14353654 245.28848859 258.24978224 240.7734375 252.99609375 C237.51809879 249.33204512 233.99548052 245.93294957 230.5 242.5 C226.37675426 238.45051536 222.299883 234.41641052 218.53125 230.03125 C214.58812608 225.44821339 210.30889602 221.23659911 206 217 C201.07089282 212.15359596 196.31027789 207.27002381 191.8046875 202.02734375 C188.37990169 198.18001943 184.67145474 194.60985315 181 191 C176.06066174 186.14353654 171.28848859 181.24978224 166.7734375 175.99609375 C163.51809879 172.33204512 159.99548052 168.93294957 156.5 165.5 C151.71096048 160.79663202 147.10665676 156.03982277 142.72851562 150.95117188 C139.80374304 147.64964892 136.64987444 144.58492858 133.5 141.5 C129.72682306 137.80462052 126.03758071 134.10097236 122.59375 130.09375 C118.62640322 125.49269878 114.32994811 121.25729797 110 117 C105.07089282 112.15359596 100.31027789 107.27002381 95.8046875 102.02734375 C92.37990169 98.18001943 88.67145474 94.60985315 85 91 C80.06066174 86.14353654 75.28848859 81.24978224 70.7734375 75.99609375 C67.51809879 72.33204512 63.99548052 68.93294957 60.5 65.5 C56.37675426 61.45051536 52.299883 57.41641052 48.53125 53.03125 C44.58812608 48.44821339 40.30889602 44.23659911 36 40 C27.43386758 31.57759463 27.43386758 31.57759463 23.51953125 27.01171875 C18.77232869 21.48404159 13.47578988 16.49875222 8.23242188 11.44726562 C7.45833984 10.68736328 6.68425781 9.92746094 5.88671875 9.14453125 C5.18764404 8.46753174 4.48856934 7.79053223 3.76831055 7.09301758 C2 5 2 5 0 0 Z " fill="#40326C" transform="translate(1021,0)"/>
<path d="M0 0 C0.89802841 -0.01343445 1.79605682 -0.0268689 2.72129822 -0.04071045 C5.69023767 -0.07870902 8.65827393 -0.08652018 11.62744141 -0.09082031 C13.69243746 -0.10367356 15.75742985 -0.11713008 17.82241821 -0.13116455 C22.15171756 -0.1551195 26.48069764 -0.16252531 30.81005859 -0.16015625 C36.35467787 -0.15974976 41.89724795 -0.21435383 47.44138145 -0.28324509 C51.70687233 -0.32774823 55.97186863 -0.33583253 60.2375679 -0.33371735 C62.2813384 -0.33843463 64.32512198 -0.35611218 66.36866379 -0.38704681 C69.23030252 -0.42630944 72.08750655 -0.41472847 74.94921875 -0.390625 C75.7909816 -0.41310303 76.63274445 -0.43558105 77.50001526 -0.45874023 C81.11991212 -0.38136988 83.24553958 -0.24901866 85.91461658 2.33178711 C87.4339242 4.35761363 88.76531608 6.43366352 90.10400391 8.58105469 C91.70633195 10.3188547 93.34856307 12.0211523 95.03759766 13.67480469 C95.93414063 14.56039063 96.83068359 15.44597656 97.75439453 16.35839844 C98.67414062 17.256875 99.59388672 18.15535156 100.54150391 19.08105469 C106.00792561 24.44361053 111.37513124 29.78656465 116.35424805 35.60644531 C119.75320228 39.44218437 123.45106977 42.98941139 127.10400391 46.58105469 C132.04334217 51.43751815 136.81551531 56.33127245 141.33056641 61.58496094 C144.58590511 65.24900957 148.10852338 68.64810512 151.60400391 72.08105469 C155.72724965 76.13053932 159.80412091 80.16464417 163.57275391 84.54980469 C167.51587783 89.13284129 171.79510788 93.34445558 176.10400391 97.58105469 C181.03311109 102.42745873 185.79372601 107.31103087 190.29931641 112.55371094 C193.72410221 116.40103526 197.43254917 119.97120154 201.10400391 123.58105469 C206.06380741 128.45764001 210.85909734 133.37175961 215.39306641 138.64746094 C218.31035505 141.94439673 221.46015261 145.00202507 224.60400391 148.08105469 C228.38765802 151.78669532 232.08588517 155.5021384 235.54150391 159.51855469 C239.34615464 163.93092241 243.44922842 168.00060435 247.60400391 172.08105469 C251.72724965 176.13053932 255.80412091 180.16464417 259.57275391 184.54980469 C263.51587783 189.13284129 267.79510788 193.34445558 272.10400391 197.58105469 C277.03311109 202.42745873 281.79372601 207.31103087 286.29931641 212.55371094 C289.72410221 216.40103526 293.43254917 219.97120154 297.10400391 223.58105469 C302.04334217 228.43751815 306.81551531 233.33127245 311.33056641 238.58496094 C314.58590511 242.24900957 318.10852338 245.64810512 321.60400391 249.08105469 C325.72724965 253.13053932 329.80412091 257.16464417 333.57275391 261.54980469 C337.51587783 266.13284129 341.79510788 270.34445558 346.10400391 274.58105469 C351.04334217 279.43751815 355.81551531 284.33127245 360.33056641 289.58496094 C363.58590511 293.24900957 367.10852338 296.64810512 370.60400391 300.08105469 C374.72724965 304.13053932 378.80412091 308.16464417 382.57275391 312.54980469 C386.51587783 317.13284129 390.79510788 321.34445558 395.10400391 325.58105469 C400.06380741 330.45764001 404.85909734 335.37175961 409.39306641 340.64746094 C412.31035505 343.94439673 415.46015261 347.00202507 418.60400391 350.08105469 C422.38765802 353.78669532 426.08588517 357.5021384 429.54150391 361.51855469 C433.34615464 365.93092241 437.44922842 370.00060435 441.60400391 374.08105469 C446.37258165 378.76432693 450.95376357 383.5007182 455.31298828 388.56738281 C458.57591391 392.23595023 462.10249103 395.64218068 465.60400391 399.08105469 C469.72724965 403.13053932 473.80412091 407.16464417 477.57275391 411.54980469 C481.51587783 416.13284129 485.79510788 420.34445558 490.10400391 424.58105469 C495.05357428 429.44757858 499.83730577 434.35151538 504.36181641 439.61621094 C507.44798441 443.09679952 510.78439658 446.32504137 514.10400391 449.58105469 C518.05218304 453.45359821 521.93524749 457.32233467 525.54150391 461.51855469 C529.49675289 466.11058978 533.78458047 470.33410479 538.10400391 474.58105469 C543.03311109 479.42745873 547.79372601 484.31103087 552.29931641 489.55371094 C555.72410221 493.40103526 559.43254917 496.97120154 563.10400391 500.58105469 C568.04155966 505.43576555 572.80927742 510.32812054 577.32177734 515.58056641 C581.30066989 520.04673703 585.67438769 524.14820625 589.96337891 528.31347656 C594.20169207 532.48722761 597.80848227 536.62474646 601.10400391 541.58105469 C599.94087719 542.7720222 598.77323718 543.95858173 597.60400391 545.14355469 C596.95431641 545.80484375 596.30462891 546.46613281 595.63525391 547.14746094 C593.59625701 549.10779283 591.52842689 550.95410916 589.38525391 552.79589844 C584.73119344 556.83783935 580.42376336 561.18757921 576.10400391 565.58105469 C571.24754044 570.52039295 566.35378614 575.29256609 561.10009766 579.80761719 C557.43604902 583.06295589 554.03695347 586.58557416 550.60400391 590.08105469 C545.92073167 594.84963243 541.18434039 599.43081435 536.11767578 603.79003906 C532.44910837 607.05296469 529.04287791 610.57954181 525.60400391 614.08105469 C521.55451927 618.20430043 517.52041442 622.28117169 513.13525391 626.04980469 C508.5522173 629.99292861 504.34060302 634.27215866 500.10400391 638.58105469 C495.24754044 643.52039295 490.35378614 648.29256609 485.10009766 652.80761719 C481.43604902 656.06295589 478.03695347 659.58557416 474.60400391 663.08105469 C470.55451927 667.20430043 466.52041442 671.28117169 462.13525391 675.04980469 C457.5522173 678.99292861 453.34060302 683.27215866 449.10400391 687.58105469 C444.25759987 692.51016187 439.37402772 697.2707768 434.13134766 701.77636719 C430.28402334 705.201153 426.71385705 708.90959995 423.10400391 712.58105469 C418.25759987 717.51016187 413.37402772 722.2707768 408.13134766 726.77636719 C404.28402334 730.201153 400.71385705 733.90959995 397.10400391 737.58105469 C392.24754044 742.52039295 387.35378614 747.29256609 382.10009766 751.80761719 C378.43604902 755.06295589 375.03695347 758.58557416 371.60400391 762.08105469 C367.55451927 766.20430043 363.52041442 770.28117169 359.13525391 774.04980469 C354.5522173 777.99292861 350.34060302 782.27215866 346.10400391 786.58105469 C341.25759987 791.51016187 336.37402772 796.2707768 331.13134766 800.77636719 C327.28402334 804.201153 323.71385705 807.90959995 320.10400391 811.58105469 C315.24754044 816.52039295 310.35378614 821.29256609 305.10009766 825.80761719 C301.43604902 829.06295589 298.03695347 832.58557416 294.60400391 836.08105469 C290.55451927 840.20430043 286.52041442 844.28117169 282.13525391 848.04980469 C277.5522173 851.99292861 273.34060302 856.27215866 269.10400391 860.58105469 C264.25759987 865.51016187 259.37402772 870.2707768 254.13134766 874.77636719 C250.28402334 878.201153 246.71385705 881.90959995 243.10400391 885.58105469 C238.25759987 890.51016187 233.37402772 895.2707768 228.13134766 899.77636719 C224.28402334 903.201153 220.71385705 906.90959995 217.10400391 910.58105469 C212.22741858 915.54085819 207.31329899 920.33614812 202.03759766 924.87011719 C198.74066186 927.78740583 195.68303353 930.93720339 192.60400391 934.08105469 C188.90862443 937.85423163 185.20497627 941.54347398 181.19775391 944.98730469 C176.59670269 948.95465147 172.36130188 953.25110658 168.10400391 957.58105469 C163.25759987 962.51016187 158.37402772 967.2707768 153.13134766 971.77636719 C149.28402334 975.201153 145.71385705 978.90959995 142.10400391 982.58105469 C137.25759987 987.51016187 132.37402772 992.2707768 127.13134766 996.77636719 C123.28402334 1000.201153 119.71385705 1003.90959995 116.10400391 1007.58105469 C111.24754044 1012.52039295 106.35378614 1017.29256609 101.10009766 1021.80761719 C97.43604902 1025.06295589 94.03695347 1028.58557416 90.60400391 1032.08105469 C86.5751753 1036.18326816 82.56486261 1040.2428159 78.19775391 1043.98730469 C73.23717335 1048.25525747 68.69376255 1052.92175425 64.10400391 1057.58105469 C58.88245021 1062.88172283 53.6806096 1068.11185813 47.99072266 1072.91308594 C45.95658598 1074.62308083 45.95658598 1074.62308083 43.99655151 1077.14189148 C40.33522618 1080.22933247 37.51923701 1080.30839589 32.93652344 1080.27563477 C32.12773743 1080.28921524 31.31895142 1080.30279572 30.48565674 1080.31678772 C27.81891849 1080.35400787 25.15379108 1080.35412223 22.48681641 1080.35058594 C20.62742488 1080.36157813 18.76803925 1080.37361244 16.90866089 1080.38664246 C13.01314941 1080.40753954 9.1182023 1080.40883414 5.22265625 1080.39770508 C0.23962553 1080.38601975 -4.74085302 1080.43350999 -9.72341728 1080.49716663 C-13.56350774 1080.53782893 -17.40298617 1080.54152507 -21.24325943 1080.53476524 C-23.07965094 1080.53696678 -24.91607378 1080.55181041 -26.75225449 1080.57972145 C-41.08477408 1080.77260054 -41.08477408 1080.77260054 -45.46392822 1077.89169312 C-47.23314822 1075.87779375 -48.56019782 1073.89792968 -49.89599609 1071.58105469 C-51.33440811 1070.08250839 -52.78949311 1068.59951452 -54.27099609 1067.14355469 C-55.02896484 1066.39332031 -55.78693359 1065.64308594 -56.56787109 1064.87011719 C-57.33615234 1064.11472656 -58.10443359 1063.35933594 -58.89599609 1062.58105469 C-63.82510327 1057.73465065 -68.5857182 1052.8510785 -73.09130859 1047.60839844 C-76.5160944 1043.76107412 -80.22454136 1040.19090783 -83.89599609 1036.58105469 C-88.83533436 1031.72459123 -93.6075075 1026.83083692 -98.12255859 1021.57714844 C-101.3778973 1017.9130998 -104.90051557 1014.51400425 -108.39599609 1011.08105469 C-112.51924184 1007.03157005 -116.5961131 1002.9974652 -120.36474609 998.61230469 C-124.30787002 994.02926808 -128.58710007 989.8176538 -132.89599609 985.58105469 C-137.82510327 980.73465065 -142.5857182 975.8510785 -147.09130859 970.60839844 C-150.5160944 966.76107412 -154.22454136 963.19090783 -157.89599609 959.58105469 C-162.82510327 954.73465065 -167.5857182 949.8510785 -172.09130859 944.60839844 C-175.5160944 940.76107412 -179.22454136 937.19090783 -182.89599609 933.58105469 C-187.83533436 928.72459123 -192.6075075 923.83083692 -197.12255859 918.57714844 C-200.3778973 914.9130998 -203.90051557 911.51400425 -207.39599609 908.08105469 C-211.51924184 904.03157005 -215.5961131 899.9974652 -219.36474609 895.61230469 C-223.30787002 891.02926808 -227.58710007 886.8176538 -231.89599609 882.58105469 C-240.46251185 874.15827242 -240.46251185 874.15827242 -244.30224609 869.67480469 C-248.72006136 864.53425928 -253.5720273 859.83679196 -258.39599609 855.08105469 C-263.83721244 849.71680038 -269.17310451 844.35998299 -274.14404297 838.55566406 C-277.5457148 834.72167274 -281.24268108 831.17307247 -284.89599609 827.58105469 C-289.83533436 822.72459123 -294.6075075 817.83083692 -299.12255859 812.57714844 C-302.3778973 808.9130998 -305.90051557 805.51400425 -309.39599609 802.08105469 C-313.51924184 798.03157005 -317.5961131 793.9974652 -321.36474609 789.61230469 C-325.30787002 785.02926808 -329.58710007 780.8176538 -333.89599609 776.58105469 C-338.82510327 771.73465065 -343.5857182 766.8510785 -348.09130859 761.60839844 C-351.5160944 757.76107412 -355.22454136 754.19090783 -358.89599609 750.58105469 C-363.83533436 745.72459123 -368.6075075 740.83083692 -373.12255859 735.57714844 C-376.3778973 731.9130998 -379.90051557 728.51400425 -383.39599609 725.08105469 C-387.51924184 721.03157005 -391.5961131 716.9974652 -395.36474609 712.61230469 C-399.30787002 708.02926808 -403.58710007 703.8176538 -407.89599609 699.58105469 C-412.82510327 694.73465065 -417.5857182 689.8510785 -422.09130859 684.60839844 C-425.5160944 680.76107412 -429.22454136 677.19090783 -432.89599609 673.58105469 C-437.82510327 668.73465065 -442.5857182 663.8510785 -447.09130859 658.60839844 C-450.5160944 654.76107412 -454.22454136 651.19090783 -457.89599609 647.58105469 C-462.82510327 642.73465065 -467.5857182 637.8510785 -472.09130859 632.60839844 C-475.5160944 628.76107412 -479.22454136 625.19090783 -482.89599609 621.58105469 C-491.46251185 613.15827242 -491.46251185 613.15827242 -495.30224609 608.67480469 C-499.72006136 603.53425928 -504.5720273 598.83679196 -509.39599609 594.08105469 C-514.83721244 588.71680038 -520.17310451 583.35998299 -525.14404297 577.55566406 C-528.5457148 573.72167274 -532.24268108 570.17307247 -535.89599609 566.58105469 C-540.8672404 561.69322052 -545.67366424 556.76769226 -550.21679688 551.47851562 C-553.48397489 547.78667097 -557.06912153 544.40665667 -560.61669922 540.98730469 C-562.07880732 539.55406516 -563.49217301 538.07142927 -564.89599609 536.58105469 C-564.89599609 535.92105469 -564.89599609 535.26105469 -564.89599609 534.58105469 C-563.56787109 533.27636719 -563.56787109 533.27636719 -561.64599609 531.70605469 C-557.34329084 528.0594357 -553.39398804 524.14451477 -549.46142578 520.10888672 C-546.76540781 517.36625962 -544.0008698 514.77576298 -541.08349609 512.26855469 C-536.45529393 508.26507183 -532.18432301 503.94256125 -527.89599609 499.58105469 C-523.03953263 494.64171642 -518.14577833 489.86954328 -512.89208984 485.35449219 C-509.22804121 482.09915348 -505.82894566 478.57653521 -502.39599609 475.08105469 C-498.36716748 470.97884122 -494.35685479 466.91929347 -489.98974609 463.17480469 C-485.02916554 458.9068519 -480.48575474 454.24035513 -475.89599609 449.58105469 C-470.69403375 444.30027473 -465.48494909 439.14496368 -459.85693359 434.31933594 C-456.20185693 431.07927793 -452.81708247 427.56445594 -449.39599609 424.08105469 C-445.39817181 420.01041029 -441.42366329 415.97661549 -437.08349609 412.26855469 C-431.55820818 407.51474256 -426.51134636 402.2659115 -421.39599609 397.08105469 C-415.68290921 391.29033932 -409.99422298 385.55510391 -403.80419922 380.26660156 C-400.16240888 377.04974889 -396.79924859 373.54629721 -393.39599609 370.08105469 C-389.35683819 365.96832377 -385.33462185 361.90012924 -380.95849609 358.14355469 C-376.18667219 354.03800315 -371.80923666 349.56513379 -367.39599609 345.08105469 C-362.376721 339.98121338 -357.33553984 335.02921986 -351.90576172 330.36816406 C-348.06290419 326.95104585 -344.49990922 323.24646804 -340.89599609 319.58105469 C-336.04959205 314.65194751 -331.16601991 309.89133258 -325.92333984 305.38574219 C-322.07601553 301.96095638 -318.50584924 298.25250942 -314.89599609 294.58105469 C-310.04959205 289.65194751 -305.16601991 284.89133258 -299.92333984 280.38574219 C-296.07601553 276.96095638 -292.50584924 273.25250942 -288.89599609 269.58105469 C-284.03953263 264.64171642 -279.14577833 259.86954328 -273.89208984 255.35449219 C-270.22804121 252.09915348 -266.82894566 248.57653521 -263.39599609 245.08105469 C-259.34651146 240.95780895 -255.31240661 236.88093768 -250.92724609 233.11230469 C-246.34420949 229.16918076 -242.1325952 224.88995071 -237.89599609 220.58105469 C-233.04959205 215.65194751 -228.16601991 210.89133258 -222.92333984 206.38574219 C-219.07601553 202.96095638 -215.50584924 199.25250942 -211.89599609 195.58105469 C-203.47364549 187.01497797 -203.47364549 187.01497797 -198.95849609 183.14355469 C-194.00675253 178.88799686 -189.47534553 174.2297882 -184.89599609 169.58105469 C-179.69403375 164.30027473 -174.48494909 159.14496368 -168.85693359 154.31933594 C-165.20185693 151.07927793 -161.81708247 147.56445594 -158.39599609 144.08105469 C-154.34651146 139.95780895 -150.31240661 135.88093768 -145.92724609 132.11230469 C-141.34420949 128.16918076 -137.1325952 123.88995071 -132.89599609 119.58105469 C-128.04959205 114.65194751 -123.16601991 109.89133258 -117.92333984 105.38574219 C-114.07601553 101.96095638 -110.50584924 98.25250942 -106.89599609 94.58105469 C-102.04959205 89.65194751 -97.16601991 84.89133258 -91.92333984 80.38574219 C-88.07601553 76.96095638 -84.50584924 73.25250942 -80.89599609 69.58105469 C-76.03953263 64.64171642 -71.14577833 59.86954328 -65.89208984 55.35449219 C-62.22804121 52.09915348 -58.82894566 48.57653521 -55.39599609 45.08105469 C-51.34651146 40.95780895 -47.31240661 36.88093768 -42.92724609 33.11230469 C-38.34420949 29.16918076 -34.1325952 24.88995071 -29.89599609 20.58105469 C-24.98710622 15.58839536 -20.06006518 10.72035862 -14.72021484 6.18652344 C-12.81645607 4.61956208 -12.81645607 4.61956208 -11.33798218 2.51702881 C-7.71580153 -0.35458788 -4.50325304 -0.00965138 0 0 Z " fill="#13004F" transform="translate(936.89599609375,-0.5810546875)"/>
<path d="M0 0 C0 109.89 0 219.78 0 333 C-114.18 333 -228.36 333 -346 333 C-339.25914457 325.13566867 -339.25914457 325.13566867 -336.40625 322.52734375 C-335.77525391 321.9446875 -335.14425781 321.36203125 -334.49414062 320.76171875 C-333.50704102 319.85873047 -333.50704102 319.85873047 -332.5 318.9375 C-326.47973523 313.37001281 -320.60158322 307.69552667 -314.86914062 301.83178711 C-312.06011601 298.97827763 -309.19330623 296.26715802 -306.15625 293.65625 C-301.53711493 289.66478688 -297.27798639 285.35098958 -293 281 C-288.15359596 276.07089282 -283.27002381 271.31027789 -278.02734375 266.8046875 C-274.18001943 263.37990169 -270.60985315 259.67145474 -267 256 C-262.14353654 251.06066174 -257.24978224 246.28848859 -251.99609375 241.7734375 C-248.33204512 238.51809879 -244.93294957 234.99548052 -241.5 231.5 C-237.45051536 227.37675426 -233.41641052 223.299883 -229.03125 219.53125 C-224.44821339 215.58812608 -220.23659911 211.30889602 -216 207 C-211.15359596 202.07089282 -206.27002381 197.31027789 -201.02734375 192.8046875 C-197.18001943 189.37990169 -193.60985315 185.67145474 -190 182 C-185.15359596 177.07089282 -180.27002381 172.31027789 -175.02734375 167.8046875 C-171.18001943 164.37990169 -167.60985315 160.67145474 -164 157 C-159.14353654 152.06066174 -154.24978224 147.28848859 -148.99609375 142.7734375 C-145.33204512 139.51809879 -141.93294957 135.99548052 -138.5 132.5 C-134.45051536 128.37675426 -130.41641052 124.299883 -126.03125 120.53125 C-121.44821339 116.58812608 -117.23659911 112.30889602 -113 108 C-108.15359596 103.07089282 -103.27002381 98.31027789 -98.02734375 93.8046875 C-94.18001943 90.37990169 -90.60985315 86.67145474 -87 83 C-82.15359596 78.07089282 -77.27002381 73.31027789 -72.02734375 68.8046875 C-68.18001943 65.37990169 -64.60985315 61.67145474 -61 58 C-56.14353654 53.06066174 -51.24978224 48.28848859 -45.99609375 43.7734375 C-42.33204512 40.51809879 -38.93294957 36.99548052 -35.5 33.5 C-31.45955111 29.38595459 -27.43584789 25.31667709 -23.05859375 21.55859375 C-18.30999353 17.47416613 -13.95298191 13.02489808 -9.5625 8.5625 C-7.96190783 6.93656196 -6.35916813 5.31273413 -4.75390625 3.69140625 C-3.70698608 2.62708374 -3.70698608 2.62708374 -2.63891602 1.54125977 C-1 0 -1 0 0 0 Z " fill="#1B0071" transform="translate(1914,746)"/>
<path d="M0 0 C111.87 0 223.74 0 339 0 C332.26040062 7.86286595 332.26040062 7.86286595 329.66015625 10.21875 C329.07951416 10.75105225 328.49887207 11.28335449 327.90063477 11.83178711 C327.29405029 12.38229736 326.68746582 12.93280762 326.0625 13.5 C319.96990553 19.099156 314.0658438 24.85046832 308.27563477 30.76171875 C305.30843129 33.77179247 302.29422407 36.6524233 299.08984375 39.41015625 C294.66951238 43.22526929 290.58947816 47.33603226 286.5 51.5 C282.45051536 55.62324574 278.41641052 59.700117 274.03125 63.46875 C269.44821339 67.41187392 265.23659911 71.69110398 261 76 C256.10328878 80.98027284 251.16880284 85.79867983 245.87109375 90.3515625 C242.9420791 92.93203052 240.22482847 95.7072207 237.5 98.5 C234.15986426 101.9234309 230.78522595 105.22498651 227.15625 108.34375 C222.53711493 112.33521312 218.27798639 116.64901042 214 121 C209.12341468 125.9598035 204.20929508 130.75509344 198.93359375 135.2890625 C195.63665795 138.20635114 192.57902962 141.3561487 189.5 144.5 C185.79435937 148.28365412 182.07891629 151.98188126 178.0625 155.4375 C173.65013228 159.24215073 169.58045034 163.34522452 165.5 167.5 C161.45051536 171.62324574 157.41641052 175.700117 153.03125 179.46875 C148.44821339 183.41187392 144.23659911 187.69110398 140 192 C135.14353654 196.93933826 130.24978224 201.71151141 124.99609375 206.2265625 C121.33204512 209.48190121 117.93294957 213.00451948 114.5 216.5 C109.81672776 221.26857774 105.08033648 225.84975966 100.01367188 230.20898438 C96.34510446 233.47191 92.93887401 236.99848712 89.5 240.5 C84.81672776 245.26857774 80.08033648 249.84975966 75.01367188 254.20898438 C71.34510446 257.47191 67.93887401 260.99848712 64.5 264.5 C59.81672776 269.26857774 55.08033648 273.84975966 50.01367188 278.20898438 C46.34510446 281.47191 42.93887401 284.99848712 39.5 288.5 C34.77653144 293.30950624 29.9993045 297.93693074 24.88867188 302.33398438 C21.95477323 304.92200458 19.2330012 307.70320483 16.5 310.5 C4.28010211 322.85994894 4.28010211 322.85994894 0 325 C0 217.75 0 110.5 0 0 Z " fill="#050014" transform="translate(0,0)"/>
<path d="M0 0 C18.15 0 36.3 0 55 0 C55 112.86 55 225.72 55 342 C50.63439957 338.25805678 46.53109862 334.66795479 42.5 330.625 C41.6234375 329.75101562 40.746875 328.87703125 39.84375 327.9765625 C37.72242076 325.80287323 35.72872618 323.54610503 33.75 321.2421875 C29.5690881 316.42182861 25.04556341 311.97375356 20.5 307.5 C15.38992581 302.47065368 10.42637508 297.41931383 5.75585938 291.97851562 C2.50814284 288.31896407 -1.01055661 284.92702043 -4.5 281.5 C-8.61273091 277.46084209 -12.68092545 273.43862576 -16.4375 269.0625 C-20.54305154 264.29067609 -25.0159209 259.91324057 -29.5 255.5 C-34.59984131 250.48072491 -39.55183483 245.43954375 -44.21289062 240.00976562 C-47.63000884 236.1669081 -51.33458665 232.60391313 -55 229 C-63.56563834 220.57808043 -63.56563834 220.57808043 -67.46875 216.03125 C-71.56202757 211.26833486 -76.02646937 206.90285874 -80.5 202.5 C-85.59984131 197.48072491 -90.55183483 192.43954375 -95.21289062 187.00976562 C-98.63000884 183.1669081 -102.33458665 179.60391313 -106 176 C-114.56618661 167.57754136 -114.56618661 167.57754136 -118.4765625 163.015625 C-123.25161903 157.45528797 -128.58222856 152.44161594 -133.85546875 147.359375 C-135.02142578 146.2146875 -135.02142578 146.2146875 -136.2109375 145.046875 C-136.91524902 144.36463867 -137.61956055 143.68240234 -138.34521484 142.97949219 C-140.09413454 140.88739409 -140.84648011 139.72042732 -141 137 C-139.08869469 134.68280735 -137.23944698 132.72705533 -135.0625 130.6875 C-134.50498047 130.14416016 -133.94746094 129.60082031 -133.37304688 129.04101562 C-130.37117721 126.14183249 -127.28399015 123.36645822 -124.12109375 120.64453125 C-119.52101709 116.65099718 -115.26891716 112.34176558 -111 108 C-106.14353654 103.06066174 -101.24978224 98.28848859 -95.99609375 93.7734375 C-92.33204512 90.51809879 -88.93294957 86.99548052 -85.5 83.5 C-81.47117139 79.39778653 -77.4608587 75.33823878 -73.09375 71.59375 C-68.13316945 67.32579721 -63.58975864 62.65930044 -59 58 C-53.8081192 52.72945434 -48.60917286 47.58570143 -42.9921875 42.76953125 C-39.15377447 39.36011732 -35.59796808 35.65936686 -32 32 C-27.1226405 27.0394091 -22.20915473 22.23725718 -16.93310547 17.70166016 C-13.67444812 14.83315274 -10.62126507 11.76610571 -7.5625 8.6875 C-6.62760742 7.7584082 -6.62760742 7.7584082 -5.67382812 6.81054688 C-5.08150391 6.21693359 -4.48917969 5.62332031 -3.87890625 5.01171875 C-3.08335327 4.21447388 -3.08335327 4.21447388 -2.27172852 3.40112305 C-0.89056415 2.00611595 -0.89056415 2.00611595 0 0 Z " fill="#06001B" transform="translate(1859,0)"/>
<path d="M0 0 C3.34852894 2.67882315 5.64178829 4.54579045 8.25 7.6875 C12.26068632 12.37531518 16.60311815 16.67689133 21 21 C25.93933826 25.85646346 30.71151141 30.75021776 35.2265625 36.00390625 C38.48190121 39.66795488 42.00451948 43.06705043 45.5 46.5 C49.62324574 50.54948464 53.700117 54.58358948 57.46875 58.96875 C61.41187392 63.55178661 65.69110398 67.76340089 70 72 C74.92910718 76.84640404 79.68972211 81.72997619 84.1953125 86.97265625 C87.62009831 90.81998057 91.32854526 94.39014685 95 98 C99.92910718 102.84640404 104.68972211 107.72997619 109.1953125 112.97265625 C112.62009831 116.81998057 116.32854526 120.39014685 120 124 C124.93933826 128.85646346 129.71151141 133.75021776 134.2265625 139.00390625 C137.48190121 142.66795488 141.00451948 146.06705043 144.5 149.5 C148.61725684 153.54360287 152.68616353 157.5679458 156.4375 161.95703125 C159.03837326 164.98468011 161.77507853 167.78038564 164.65625 170.54296875 C165.84734375 171.68862305 165.84734375 171.68862305 167.0625 172.85742188 C168.7097095 174.43203801 170.36625308 175.99693864 172.03125 177.55273438 C172.815 178.31263672 173.59875 179.07253906 174.40625 179.85546875 C175.12103516 180.53246826 175.83582031 181.20946777 176.57226562 181.90698242 C178 184 178 184 177.94335938 186.5559082 C176.85899263 189.36532733 175.8514616 190.40242303 173.5 192.25 C168.68757671 196.21317212 164.3679205 200.55754161 160 205 C155.14353654 209.93933826 150.24978224 214.71151141 144.99609375 219.2265625 C141.33204512 222.48190121 137.93294957 226.00451948 134.5 229.5 C130.45051536 233.62324574 126.41641052 237.700117 122.03125 241.46875 C117.44821339 245.41187392 113.23659911 249.69110398 109 254 C104.15359596 258.92910718 99.27002381 263.68972211 94.02734375 268.1953125 C90.18001943 271.62009831 86.60985315 275.32854526 83 279 C78.15359596 283.92910718 73.27002381 288.68972211 68.02734375 293.1953125 C64.18001943 296.62009831 60.60985315 300.32854526 57 304 C52.14638187 308.93644438 47.25565087 313.70559782 42.00488281 318.21777344 C38.29476671 321.51585521 34.85236189 325.08509563 31.375 328.625 C29.92696504 330.09880071 28.47649375 331.57021216 27.0234375 333.0390625 C26.07863525 334.00126709 26.07863525 334.00126709 25.11474609 334.98291016 C15.38640366 344.26201027 16.59465276 342 0 342 C0 229.14 0 116.28 0 0 Z " fill="#1B0070" transform="translate(0,737)"/>
<path d="M0 0 C4.40483729 3.34968615 7.97521911 7.39271054 10.0546875 12.5625 C10.1796875 15.3125 10.1796875 15.3125 10.0546875 17.5625 C7.78547214 17.69739391 5.5139808 17.79443995 3.2421875 17.875 C1.34533203 17.96201172 1.34533203 17.96201172 -0.58984375 18.05078125 C-1.69714844 17.88964844 -2.80445313 17.72851562 -3.9453125 17.5625 C-5.69921875 15.16015625 -5.69921875 15.16015625 -6.9453125 12.5625 C-12.42728358 9.27331735 -16.7675603 9.06451121 -22.9453125 10.5625 C-27.66860365 12.5134246 -29.01313744 14.91878516 -30.9453125 19.5625 C-31.7019799 25.88169532 -32.27876679 33.09809355 -29.1953125 38.875 C-26.24983958 42.39320376 -24.46435526 43.41311776 -19.88671875 43.86328125 C-18.77167969 43.86714844 -17.65664063 43.87101563 -16.5078125 43.875 C-15.39535156 43.89175781 -14.28289063 43.90851562 -13.13671875 43.92578125 C-9.54914794 43.51740416 -7.74465759 42.8286365 -4.9453125 40.5625 C-4.2853125 38.9125 -3.6253125 37.2625 -2.9453125 35.5625 C-7.8953125 35.2325 -12.8453125 34.9025 -17.9453125 34.5625 C-17.9453125 30.6025 -17.9453125 26.6425 -17.9453125 22.5625 C-8.7053125 22.5625 0.5346875 22.5625 10.0546875 22.5625 C10.0546875 33.7825 10.0546875 45.0025 10.0546875 56.5625 C6.4246875 56.5625 2.7946875 56.5625 -0.9453125 56.5625 C-0.9453125 55.2425 -0.9453125 53.9225 -0.9453125 52.5625 C-1.91017578 53.10390625 -1.91017578 53.10390625 -2.89453125 53.65625 C-10.9986359 57.81812971 -18.62378855 59.33895217 -27.55859375 56.828125 C-35.98032535 53.37450734 -40.94451196 48.50253124 -44.80078125 40.28125 C-47.51627596 31.45820917 -47.79029928 20.43188442 -44.0078125 11.875 C-40.03962924 5.46313327 -33.79677163 -0.78835814 -26.43359375 -3.03125 C-17.37462548 -4.51026523 -8.10455258 -4.80269782 0 0 Z " fill="#F9F9FB" transform="translate(791.9453125,515.4375)"/>
<path d="M0 0 C1.77697266 -0.02513672 1.77697266 -0.02513672 3.58984375 -0.05078125 C8.07600533 0.41852474 11.35776553 1.7575878 14.70703125 4.8125 C18.54412936 9.74041195 19.18705449 12.78952255 19.16015625 18.94921875 C19.15693359 20.24794922 19.15371094 21.54667969 19.15039062 22.88476562 C19.14203531 24.25651108 19.13357037 25.62825587 19.125 27 C19.11998335 28.38346195 19.11542073 29.76692563 19.11132812 31.15039062 C19.09952529 34.53780395 19.08306019 37.92513033 19.0625 41.3125 C15.1025 41.3125 11.1425 41.3125 7.0625 41.3125 C6.7325 40.3225 6.4025 39.3325 6.0625 38.3125 C5.299375 38.9725 4.53625 39.6325 3.75 40.3125 C-0.76865904 43.31778392 -5.71937457 43.09560649 -10.9375 42.3125 C-14.84825925 40.32281547 -16.51439098 38.94716354 -18.9375 35.3125 C-19.597575 30.35426219 -19.693531 25.82456199 -17.4375 21.3125 C-10.73012215 15.94659772 -3.21606752 15.71263076 5.0625 15.3125 C4.7325 13.9925 4.4025 12.6725 4.0625 11.3125 C0.40995949 10.3732753 -2.33637139 10.0472386 -5.9375 11.3125 C-6.5975 12.6325 -7.2575 13.9525 -7.9375 15.3125 C-11.2375 15.3125 -14.5375 15.3125 -17.9375 15.3125 C-18.38546936 12.25137604 -18.42631708 10.10744494 -16.77734375 7.42578125 C-11.89479295 1.46931902 -7.74532298 0.02522907 0 0 Z " fill="#F8F7FA" transform="translate(828.9375,530.6875)"/>
<path d="M0 0 C0.70858154 0.00499512 1.41716309 0.00999023 2.1472168 0.01513672 C6.03362042 0.14550769 9.10799063 0.45166759 12.375 2.625 C17.09573299 7.67508646 18.44350737 11.78142506 18.35546875 18.6484375 C18.35122391 19.30582916 18.34697906 19.96322083 18.34260559 20.64053345 C18.32594977 22.71912391 18.2883262 24.79670774 18.25 26.875 C18.23493605 28.29295464 18.22125065 29.71092464 18.20898438 31.12890625 C18.17609038 34.5862589 18.12440165 38.04303103 18.0625 41.5 C14.4325 41.5 10.8025 41.5 7.0625 41.5 C7.0625 40.51 7.0625 39.52 7.0625 38.5 C5.969375 39.16 4.87625 39.82 3.75 40.5 C-1.40200598 43.03946394 -6.29448144 43.63195766 -11.9375 42.5 C-15.96508038 40.24200678 -18.47141718 37.89824846 -19.9375 33.5 C-20.52245437 28.4861054 -20.54881628 25.65979836 -17.375 21.625 C-13.2496386 17.43279247 -9.44713737 16.57934451 -3.6015625 16.39453125 C-0.37669791 16.37704283 2.83894302 16.41274583 6.0625 16.5 C5.4025 14.85 4.7425 13.2 4.0625 11.5 C-0.65148698 10.52470156 -0.65148698 10.52470156 -5.3125 11.25 C-7.247197 12.49718822 -7.247197 12.49718822 -7.9375 15.5 C-11.5675 15.5 -15.1975 15.5 -18.9375 15.5 C-18.52399697 10.22783638 -17.76715008 7.22614602 -13.9375 3.5 C-9.32088694 0.69462451 -5.32046398 -0.04882883 0 0 Z " fill="#F8F8FA" transform="translate(895.9375,530.5)"/>
<path d="M0 0 C4.62 0 9.24 0 14 0 C16.64 7.59 19.28 15.18 22 23 C24.79989536 16.31136107 27.57342499 9.62074807 30.203125 2.86328125 C31 1 31 1 32 0 C36.33315059 -0.1438629 40.66512361 -0.04208618 45 0 C41.08102227 10.74191979 36.87026124 21.32440913 32.35839844 31.83105469 C31.36203597 34.15524082 30.37617984 36.48371362 29.390625 38.8125 C28.74802192 40.31537203 28.10481531 41.81798617 27.4609375 43.3203125 C27.17229828 44.00473419 26.88365906 44.68915588 26.58627319 45.39431763 C23.97546815 51.42848423 21.33896766 57.293891 15 60 C11.703125 60.328125 11.703125 60.328125 8.25 60.25 C7.10015625 60.23453125 5.9503125 60.2190625 4.765625 60.203125 C2 60 2 60 1 59 C0.92794489 57.31391034 0.91613932 55.62499341 0.9375 53.9375 C0.94652344 53.01839844 0.95554687 52.09929688 0.96484375 51.15234375 C0.97644531 50.44207031 0.98804688 49.73179687 1 49 C2.03060547 48.94392578 2.03060547 48.94392578 3.08203125 48.88671875 C3.98308594 48.82097656 4.88414062 48.75523437 5.8125 48.6875 C6.70582031 48.62949219 7.59914063 48.57148437 8.51953125 48.51171875 C11.43218074 47.91084145 12.34046831 47.45526928 14 45 C15.74641302 39.24013215 14.03165268 35.43506874 11.81640625 30.13671875 C11.31487282 28.88783623 11.31487282 28.88783623 10.8032074 27.61372375 C9.73660942 24.96588368 8.65017984 22.32674082 7.5625 19.6875 C6.48292601 17.02874025 5.40737947 14.36838015 4.33250427 11.7077179 C3.66291836 10.05467297 2.9897133 8.40308873 2.31263733 6.75309753 C0 1.10483928 0 1.10483928 0 0 Z " fill="#F9F9FB" transform="translate(963,532)"/>
<path d="M0 0 C5.15134391 -0.58984854 9.87255564 -0.91083129 15 0 C18.06532929 2.92669631 19.57822032 6.03882278 21 10 C23.21116694 7.94089039 24.7388771 5.95998323 26.1875 3.3125 C26.785625 2.219375 27.38375 1.12625 28 0 C32.62 0 37.24 0 42 0 C39.76139651 5.59650873 39.76139651 5.59650873 37.80078125 8.375 C37.39666016 8.96796875 36.99253906 9.5609375 36.57617188 10.171875 C35.72991725 11.39613207 34.87564405 12.61488297 34.01367188 13.828125 C32.2883764 16.3841183 31.02362982 18.32547616 30.9140625 21.453125 C32.51390359 25.2052703 34.72841907 28.41743327 37.0625 31.75 C42 38.90364939 42 38.90364939 42 40 C36.84865609 40.58984854 32.12744436 40.91083129 27 40 C23.93467071 37.07330369 22.42177968 33.96117722 21 30 C20.74089844 30.721875 20.48179687 31.44375 20.21484375 32.1875 C18.758132 35.39493872 17.56074174 37.5550707 15 40 C9.87255564 40.91083129 5.15134391 40.58984854 0 40 C1.05990633 38.31086973 2.12307446 36.62378609 3.1875 34.9375 C3.82042969 33.93460938 4.45335937 32.93171875 5.10546875 31.8984375 C6.65492655 29.5279268 8.26732648 27.29789288 10 25.0625 C12.24596388 22.33379574 12.24596388 22.33379574 11.78149414 20.06323242 C10.91826576 17.78421242 9.84589901 15.95490495 8.49609375 13.92578125 C8.00302734 13.17619141 7.50996094 12.42660156 7.00195312 11.65429688 C6.48568359 10.88150391 5.96941406 10.10871094 5.4375 9.3125 C4.41345838 7.76818941 3.39121907 6.22268163 2.37109375 4.67578125 C1.91661865 3.99427002 1.46214355 3.31275879 0.99389648 2.6105957 C0 1 0 1 0 0 Z " fill="#FAF9FB" transform="translate(919,532)"/>
<path d="M0 0 C1.4540625 0.0309375 1.4540625 0.0309375 2.9375 0.0625 C3.2675 0.7225 3.5975 1.3825 3.9375 2.0625 C4.9275 1.4025 5.9175 0.7425 6.9375 0.0625 C10.32857371 -0.48352034 13.54624176 -0.48377924 16.9375 0.0625 C19.76174288 2.25272918 21.35258603 3.89267207 22.9375 7.0625 C23.65660796 14.17105901 23.45142888 19.39115346 18.9375 25.0625 C16.05083787 27.64254776 13.4904843 28.98239598 9.58984375 29.18359375 C3.69737548 28.73327504 3.69737548 28.73327504 1.171875 26.50390625 C0.76453125 26.02824219 0.3571875 25.55257812 -0.0625 25.0625 C-0.19527344 26.04992187 -0.32804687 27.03734375 -0.46484375 28.0546875 C-0.64144531 29.33601562 -0.81804687 30.61734375 -1 31.9375 C-1.26103516 33.85175781 -1.26103516 33.85175781 -1.52734375 35.8046875 C-2.0625 39.0625 -2.0625 39.0625 -3.0625 41.0625 C-5.3725 41.0625 -7.6825 41.0625 -10.0625 41.0625 C-8.9791457 31.36932992 -7.58576198 21.74853922 -6 12.125 C-5.8256543 11.0525 -5.65130859 9.98 -5.47167969 8.875 C-5.30442383 7.87597656 -5.13716797 6.87695312 -4.96484375 5.84765625 C-4.74042603 4.50006226 -4.74042603 4.50006226 -4.51147461 3.12524414 C-3.79375714 -0.17219735 -3.52466612 0.07193196 0 0 Z " fill="#B4B3B8" transform="translate(1078.0625,514.9375)"/>
<path d="M0 0 C4.29 0 8.58 0 13 0 C13 20.13 13 40.26 13 61 C8.71 61 4.42 61 0 61 C0 40.87 0 20.74 0 0 Z " fill="#F5F4F7" transform="translate(856,511)"/>
<path d="M0 0 C2.05078125 0.03255208 4.1015625 0.06510417 6.15234375 0.09765625 C6.944697 3.88917977 7.73609831 7.68090141 8.52734375 11.47265625 C8.7490625 12.53355469 8.97078125 13.59445312 9.19921875 14.6875 C9.85337063 17.82358106 10.50289996 20.96059739 11.15234375 24.09765625 C11.45229248 25.52102295 11.45229248 25.52102295 11.75830078 26.97314453 C11.93989746 27.8495459 12.12149414 28.72594727 12.30859375 29.62890625 C12.46908203 30.39525391 12.62957031 31.16160156 12.79492188 31.95117188 C13.31044816 35.04714665 13.28847156 37.96671672 13.15234375 41.09765625 C10.84234375 41.09765625 8.53234375 41.09765625 6.15234375 41.09765625 C5.82234375 38.12765625 5.49234375 35.15765625 5.15234375 32.09765625 C-0.12765625 32.09765625 -5.40765625 32.09765625 -10.84765625 32.09765625 C-11.50765625 34.07765625 -12.16765625 36.05765625 -12.84765625 38.09765625 C-13.50765625 39.08765625 -14.16765625 40.07765625 -14.84765625 41.09765625 C-16.79296875 41.390625 -16.79296875 41.390625 -18.97265625 41.28515625 C-20.25140625 41.22328125 -21.53015625 41.16140625 -22.84765625 41.09765625 C-22.19023438 39.7828125 -22.19023438 39.7828125 -21.51953125 38.44140625 C-21.21990479 37.84207275 -20.92027832 37.24273926 -20.61157227 36.62524414 C-19.9248199 35.25190478 -19.23780012 33.87869912 -18.55053711 32.50561523 C-16.25386827 27.9157551 -13.9642668 23.32245336 -11.6796875 18.7265625 C-11.13924805 17.64117188 -10.59880859 16.55578125 -10.04199219 15.4375 C-8.95903135 13.26250505 -7.87763611 11.08672983 -6.79785156 8.91015625 C-6.29995117 7.91113281 -5.80205078 6.91210938 -5.2890625 5.8828125 C-4.61919312 4.53521851 -4.61919312 4.53521851 -3.93579102 3.16040039 C-2.33368954 0.12334511 -2.33368954 0.12334511 0 0 Z " fill="#B5B3B8" transform="translate(1038.84765625,501.90234375)"/>
<path d="M0 0 C2.41906453 0.97669215 3.6622075 1.56086975 5.25 3.625 C7.78289963 11.64584883 4.8618666 20.10923203 3 28 C1.02 28 -0.96 28 -3 28 C-3.33 27.34 -3.66 26.68 -4 26 C-4.680625 26.495 -5.36125 26.99 -6.0625 27.5 C-9.77306506 29.39475662 -11.88370608 29.66154724 -16 29 C-19 26.375 -19 26.375 -21 23 C-21.17049953 18.82276158 -20.32437007 17.38412245 -17.625 14.1875 C-13.81357616 11.01131347 -11.1161554 10.88098641 -6.3125 10.9375 C-5.31863281 10.94652344 -4.32476563 10.95554687 -3.30078125 10.96484375 C-2.16189453 10.98224609 -2.16189453 10.98224609 -1 11 C-1 9.35 -1 7.7 -1 6 C-3.97 6 -6.94 6 -10 6 C-10.66 7.32 -11.32 8.64 -12 10 C-13.98 10 -15.96 10 -18 10 C-17.72298223 6.76812607 -16.95732976 4.93378755 -15.1875 2.1875 C-10.41139312 -1.09022041 -5.63660801 -0.73655813 0 0 Z " fill="#B3B2B7" transform="translate(1157,515)"/>
<path d="M0 0 C2.31 0 4.62 0 7 0 C6.34 5.28 5.68 10.56 5 16 C6.65 15.01 8.3 14.02 10 13 C14.05310471 13.0711071 16.21112288 13.35644235 19.375 15.9375 C22.4451 19.83416538 22.4266444 23.19313976 22 28 C21.13282295 32.69888958 20.0972133 37.34990554 19 42 C16.69 42 14.38 42 12 42 C12.09873413 41.09906616 12.09873413 41.09906616 12.19946289 40.17993164 C12.49276381 37.47469587 12.77773907 34.76864744 13.0625 32.0625 C13.16626953 31.11697266 13.27003906 30.17144531 13.37695312 29.19726562 C13.51713867 27.84858398 13.51713867 27.84858398 13.66015625 26.47265625 C13.74918213 25.64000244 13.83820801 24.80734863 13.92993164 23.94946289 C13.9530542 23.30614014 13.97617676 22.66281738 14 22 C12.82963695 20.60712194 12.82963695 20.60712194 9.5625 20.8125 C5.94967279 20.60435072 5.94967279 20.60435072 4 23 C3.35628015 25.02208548 3.35628015 25.02208548 2.9296875 27.3515625 C2.75566406 28.20234375 2.58164063 29.053125 2.40234375 29.9296875 C2.22832031 30.81914063 2.05429688 31.70859375 1.875 32.625 C1.69324219 33.5221875 1.51148438 34.419375 1.32421875 35.34375 C0.8760054 37.5612266 0.4349076 39.77988214 0 42 C-2.31 42 -4.62 42 -7 42 C-3.09667302 11.74398635 -3.09667302 11.74398635 0 0 Z " fill="#B3B2B7" transform="translate(1111,501)"/>
<path d="M0 0 C2.31 0 4.62 0 7 0 C6.41117073 7.83685278 5.34860014 15.5102079 4 23.25 C3.64511595 25.31758533 3.29093085 27.38529077 2.9375 29.453125 C2.77378906 30.40896484 2.61007812 31.36480469 2.44140625 32.34960938 C1.90666286 35.56043587 1.43734237 38.77460003 1 42 C-1.31 42 -3.62 42 -6 42 C-5.6714643 32.81742706 -4.45684795 23.87495124 -3 14.8125 C-2.82178711 13.70140869 -2.64357422 12.59031738 -2.45996094 11.44555664 C-1.13949622 3.41848867 -1.13949622 3.41848867 0 0 Z " fill="#B2B1B7" transform="translate(1063,501)"/>
<path d="M0 0 C3.8125 0.5 3.8125 0.5 5.8125 2.5 C6.52499791 6.249989 6.5502351 9.93904119 4.90234375 13.42578125 C2.80400327 16.25280588 1.17613933 17.41836668 -2.25 18.1875 C-5.1875 17.5 -5.1875 17.5 -7.5625 15.375 C-9.50391332 11.94019182 -9.90047058 10.38172869 -9.1875 6.5 C-6.69523671 2.29430569 -4.93203787 0.12577146 0 0 Z " fill="#180556" transform="translate(1088.1875,520.5)"/>
<path d="M0 0 C-0.24224273 3.63364102 -0.37946238 5.4342157 -3.125 7.9375 C-6.7756828 9.28666538 -9.24199202 8.81055074 -13 8 C-13 6.02 -13 4.04 -13 2 C-11.39658445 1.66307215 -9.79223445 1.33058907 -8.1875 1 C-7.29417969 0.814375 -6.40085937 0.62875 -5.48046875 0.4375 C-3 0 -3 0 0 0 Z " fill="#220E60" transform="translate(836,555)"/>
<path d="M0 0 C0.36 4.44 0.36 4.44 -1.125 6.75 C-3.75039586 8.50026391 -5.86738265 8.8082071 -9 9 C-11.375 8.0625 -11.375 8.0625 -13 7 C-12.67 5.35 -12.34 3.7 -12 2 C-10.37548581 1.66430703 -8.75037083 1.3315204 -7.125 1 C-6.22007812 0.814375 -5.31515625 0.62875 -4.3828125 0.4375 C-2 0 -2 0 0 0 Z " fill="#160157" transform="translate(902,555)"/>
<path d="M0 0 C2.26954631 3.40431947 2.36549949 5.16524202 2.625 9.1875 C2.69976563 10.27417969 2.77453125 11.36085938 2.8515625 12.48046875 C2.90054687 13.31191406 2.94953125 14.14335938 3 15 C-0.3 15 -3.6 15 -7 15 C-3.535 7.575 -3.535 7.575 0 0 Z " fill="#1A0756" transform="translate(1039,512)"/>
<path d="M0 0 C1.21236328 0.04060547 1.21236328 0.04060547 2.44921875 0.08203125 C3.06410156 0.11683594 3.67898438 0.15164063 4.3125 0.1875 C4 2.5625 4 2.5625 3.3125 5.1875 C-0.3316774 7.6169516 -2.39991272 7.34929575 -6.6875 7.1875 C-7.375 5.375 -7.375 5.375 -7.6875 3.1875 C-5.4301831 0.09854004 -3.71830823 -0.16166558 0 0 Z " fill="#1A0758" transform="translate(1150.6875,530.8125)"/>
</svg>
