<?xml version="1.0" encoding="UTF-8"?>
<svg version="1.1" xmlns="http://www.w3.org/2000/svg" width="1912" height="1079">
<path d="M0 0 C630.96 0 1261.92 0 1912 0 C1912 356.07 1912 712.14 1912 1079 C1281.04 1079 650.08 1079 0 1079 C0 722.93 0 366.86 0 0 Z " fill="#545454" transform="translate(0,0)"/>
<path d="M0 0 C294.69 0 589.38 0 893 0 C893 356.07 893 712.14 893 1079 C584.12 1079 275.24 1079 -43 1079 C-37.69632639 1072.81238078 -32.5191533 1067.11468806 -26.3359375 1061.84375 C-21.66729662 1057.7784511 -17.33826619 1053.41229803 -13 1049 C-8.14353654 1044.06066174 -3.24978224 1039.28848859 2.00390625 1034.7734375 C5.66795488 1031.51809879 9.06705043 1027.99548052 12.5 1024.5 C16.49782429 1020.4293556 20.4723328 1016.3955608 24.8125 1012.6875 C30.33778792 1007.93368788 35.38464973 1002.68485681 40.5 997.5 C46.21308688 991.70928463 51.90177312 985.97404922 58.09179688 980.68554688 C61.73358722 977.4686942 65.09674751 973.96524252 68.5 970.5 C72.54948464 966.37675426 76.58358948 962.299883 80.96875 958.53125 C85.55178661 954.58812608 89.76340089 950.30889602 94 946 C98.84640404 941.07089282 103.72997619 936.31027789 108.97265625 931.8046875 C112.81998057 928.37990169 116.39014685 924.67145474 120 921 C124.84640404 916.07089282 129.72997619 911.31027789 134.97265625 906.8046875 C138.81998057 903.37990169 142.39014685 899.67145474 146 896 C150.85646346 891.06066174 155.75021776 886.28848859 161.00390625 881.7734375 C164.66795488 878.51809879 168.06705043 874.99548052 171.5 871.5 C175.54948464 867.37675426 179.58358948 863.299883 183.96875 859.53125 C188.55178661 855.58812608 192.76340089 851.30889602 197 847 C201.84640404 842.07089282 206.72997619 837.31027789 211.97265625 832.8046875 C215.81998057 829.37990169 219.39014685 825.67145474 223 822 C227.84640404 817.07089282 232.72997619 812.31027789 237.97265625 807.8046875 C241.81998057 804.37990169 245.39014685 800.67145474 249 797 C253.85646346 792.06066174 258.75021776 787.28848859 264.00390625 782.7734375 C267.66795488 779.51809879 271.06705043 775.99548052 274.5 772.5 C279.18327224 767.73142226 283.91966352 763.15024034 288.98632812 758.79101562 C292.65489554 755.52809 296.06112599 752.00151288 299.5 748.5 C303.53915791 744.38726909 307.56137424 740.31907455 311.9375 736.5625 C316.70932391 732.45694846 321.08675943 727.9840791 325.5 723.5 C330.52934632 718.38992581 335.58068617 713.42637508 341.02148438 708.75585938 C344.68103593 705.50814284 348.07297957 701.98944339 351.5 698.5 C356.21341766 693.70072774 360.98043581 689.08486349 366.08007812 684.69726562 C369.19797297 681.94095777 372.09007411 678.97246071 375 676 C382.23189677 668.68428827 382.23189677 668.68428827 385.9375 665.5625 C390.70126914 661.53953297 395.00902889 657.04038095 399.37084961 652.59204102 C402.45469063 649.46582723 405.57511091 646.45655072 408.90625 643.59375 C413.50730122 639.62640322 417.74270203 635.32994811 422 631 C426.84640404 626.07089282 431.72997619 621.31027789 436.97265625 616.8046875 C440.81998057 613.37990169 444.39014685 609.67145474 448 606 C452.85646346 601.06066174 457.75021776 596.28848859 463.00390625 591.7734375 C466.66795488 588.51809879 470.06705043 584.99548052 473.5 581.5 C478.18327224 576.73142226 482.91966352 572.15024034 487.98632812 567.79101562 C491.65489554 564.52809 495.06112599 561.00151288 498.5 557.5 C503.33429451 552.57764912 508.17853487 547.86633435 513.54882812 543.52539062 C515.34463064 541.98864385 515.34463064 541.98864385 515 539 C513.04041478 536.64487447 511.05973831 534.45082933 508.9375 532.25 C508.31351318 531.59185303 507.68952637 530.93370605 507.04663086 530.25561523 C501.87586692 524.83246187 496.59148445 519.52104658 491.23999023 514.27636719 C488.21832268 511.29936304 485.3279563 508.27293449 482.55859375 505.05859375 C478.90631832 500.82693207 474.98883484 496.91242038 471 493 C467.05182087 489.12745648 463.16875641 485.25872002 459.5625 481.0625 C455.60725102 476.4704649 451.31942344 472.24694989 447 468 C442.05042963 463.13347611 437.26669814 458.22953931 432.7421875 452.96484375 C429.65601949 449.48425517 426.31960733 446.25601331 423 443 C419.05182087 439.12745648 415.16875641 435.25872002 411.5625 431.0625 C407.60725102 426.4704649 403.31942344 422.24694989 399 418 C394.06066174 413.14353654 389.28848859 408.24978224 384.7734375 402.99609375 C381.51809879 399.33204512 377.99548052 395.93294957 374.5 392.5 C369.70072774 387.78658234 365.08486349 383.01956419 360.69726562 377.91992188 C357.9411238 374.80221484 354.97425117 371.90786164 352 369 C348.39128593 365.47183759 344.88675546 361.9211632 341.59375 358.09375 C337.77714387 353.67227996 333.66528078 349.59076771 329.5 345.5 C325.37675426 341.45051536 321.299883 337.41641052 317.53125 333.03125 C313.58812608 328.44821339 309.30889602 324.23659911 305 320 C300.0401965 315.12341468 295.24490656 310.20929508 290.7109375 304.93359375 C287.79364886 301.63665795 284.6438513 298.57902962 281.5 295.5 C277.72682306 291.80462052 274.03758071 288.10097236 270.59375 284.09375 C266.62640322 279.49269878 262.32994811 275.25729797 258 271 C253.01972716 266.10328878 248.20132017 261.16880284 243.6484375 255.87109375 C241.06796948 252.9420791 238.2927793 250.22482847 235.5 247.5 C232.06612544 244.1496747 228.75530391 240.76330752 225.625 237.125 C221.79646278 232.69441152 217.67578391 228.60108295 213.5 224.5 C209.37675426 220.45051536 205.299883 216.41641052 201.53125 212.03125 C197.58812608 207.44821339 193.30889602 203.23659911 189 199 C184.07089282 194.15359596 179.31027789 189.27002381 174.8046875 184.02734375 C171.37990169 180.18001943 167.67145474 176.60985315 164 173 C159.07089282 168.15359596 154.31027789 163.27002381 149.8046875 158.02734375 C146.37990169 154.18001943 142.67145474 150.60985315 139 147 C134.06066174 142.14353654 129.28848859 137.24978224 124.7734375 131.99609375 C121.51809879 128.33204512 117.99548052 124.93294957 114.5 121.5 C110.37675426 117.45051536 106.299883 113.41641052 102.53125 109.03125 C98.58812608 104.44821339 94.30889602 100.23659911 90 96 C85.06066174 91.14353654 80.28848859 86.24978224 75.7734375 80.99609375 C72.51809879 77.33204512 68.99548052 73.93294957 65.5 70.5 C61.38726909 66.46084209 57.31907455 62.43862576 53.5625 58.0625 C49.45694846 53.29067609 44.9840791 48.91324057 40.5 44.5 C35.38992581 39.47065368 30.42637508 34.41931383 25.75585938 28.97851562 C22.50814284 25.31896407 18.98944339 21.92702043 15.5 18.5 C3.60952747 6.82223718 3.60952747 6.82223718 0 2 C0 1.34 0 0.68 0 0 Z " fill="#525252" transform="translate(1019,0)"/>
<path d="M0 0 C0.90310913 -0.01839935 1.80621826 -0.03679871 2.73669434 -0.05575562 C5.71833887 -0.10828878 8.6985918 -0.12297852 11.68066406 -0.1328125 C13.75946583 -0.15142626 15.8382623 -0.17064086 17.91705322 -0.19042969 C22.27490047 -0.22487278 26.63225807 -0.23813999 30.99023438 -0.23925781 C36.56102023 -0.24433324 42.12810045 -0.32290509 47.6979332 -0.4203186 C51.99276952 -0.48359163 56.28671904 -0.4967375 60.58197784 -0.49615479 C62.63450938 -0.50387671 64.68705773 -0.52948285 66.73912811 -0.57366943 C82.76597821 -0.88870479 82.76597821 -0.88870479 88.06942749 3.07832336 C90.34200644 5.85622769 92.15058665 8.64109103 93.94628906 11.7421875 C95.40611892 13.49467632 95.40611892 13.49467632 96.87646484 14.88354492 C98.66026932 16.63116078 100.43960722 18.38334096 102.21582031 20.13867188 C103.158125 21.05970703 104.10042969 21.98074219 105.07128906 22.9296875 C110.63387323 28.38395856 116.11207633 33.82354703 121.17626953 39.74731445 C124.7398258 43.76356525 128.6211068 47.47743465 132.44628906 51.2421875 C137.55636326 56.27153382 142.51991398 61.32287367 147.19042969 66.76367188 C150.43814622 70.42322343 153.95684568 73.81516707 157.44628906 77.2421875 C161.5695348 81.29167214 165.64640607 85.32577698 169.41503906 89.7109375 C173.35816299 94.29397411 177.63739304 98.50558839 181.94628906 102.7421875 C186.88562733 107.59865096 191.65780047 112.49240526 196.17285156 117.74609375 C199.42819027 121.41014238 202.95080854 124.80923793 206.44628906 128.2421875 C210.5695348 132.29167214 214.64640607 136.32577698 218.41503906 140.7109375 C222.35816299 145.29397411 226.63739304 149.50558839 230.94628906 153.7421875 C235.87539624 158.58859154 240.63601117 163.47216369 245.14160156 168.71484375 C248.56638737 172.56216807 252.27483433 176.13233435 255.94628906 179.7421875 C260.87539624 184.58859154 265.63601117 189.47216369 270.14160156 194.71484375 C273.56638737 198.56216807 277.27483433 202.13233435 280.94628906 205.7421875 C285.88562733 210.59865096 290.65780047 215.49240526 295.17285156 220.74609375 C298.42819027 224.41014238 301.95080854 227.80923793 305.44628906 231.2421875 C310.2557953 235.96565606 314.8832198 240.742883 319.28027344 245.85351562 C321.86810303 248.78719817 324.64749675 251.51149232 327.44628906 254.2421875 C330.86971996 257.58232324 334.17127557 260.95696155 337.29003906 264.5859375 C341.28150219 269.20507257 345.59529949 273.46420111 349.94628906 277.7421875 C354.90609256 282.61877282 359.7013825 287.53289242 364.23535156 292.80859375 C367.15264021 296.10552955 370.30243777 299.16315788 373.44628906 302.2421875 C377.219466 305.93756698 380.90870836 309.64121514 384.35253906 313.6484375 C388.31988584 318.24948872 392.61634095 322.48488953 396.94628906 326.7421875 C401.88562733 331.59865096 406.65780047 336.49240526 411.17285156 341.74609375 C414.42819027 345.41014238 417.95080854 348.80923793 421.44628906 352.2421875 C426.24556133 356.95560516 430.86142558 361.72262331 435.24902344 366.82226562 C438.00516526 369.93997266 440.97203789 372.83432586 443.94628906 375.7421875 C447.55500313 379.27034991 451.0595336 382.8210243 454.35253906 386.6484375 C458.16914519 391.06990754 462.28100828 395.15141979 466.44628906 399.2421875 C470.5695348 403.29167214 474.64640607 407.32577698 478.41503906 411.7109375 C482.35816299 416.29397411 486.63739304 420.50558839 490.94628906 424.7421875 C495.89585943 429.60871139 500.67959092 434.51264819 505.20410156 439.77734375 C508.29026957 443.25793233 511.62668174 446.48617419 514.94628906 449.7421875 C518.8944682 453.61473102 522.77753265 457.48346748 526.38378906 461.6796875 C530.33903804 466.2717226 534.62686562 470.49523761 538.94628906 474.7421875 C543.89585943 479.60871139 548.67959092 484.51264819 553.20410156 489.77734375 C556.29026957 493.25793233 559.62668174 496.48617419 562.94628906 499.7421875 C566.89406894 503.61433941 570.77607022 507.48207964 574.37988281 511.6796875 C579.05617322 517.11038937 584.2284688 522.03800879 589.36230469 527.03125 C594.04318399 531.64475001 598.18844242 536.3457396 601.94628906 541.7421875 C598.13142677 545.62517234 594.32503484 549.43613617 590.19628906 552.98828125 C585.7304474 556.8667586 581.58902556 561.02399132 577.44628906 565.2421875 C572.76301682 570.01076524 568.02662555 574.59194716 562.95996094 578.95117188 C559.29139352 582.2140975 555.88516307 585.74067462 552.44628906 589.2421875 C548.39680443 593.36543324 544.36269958 597.4423045 539.97753906 601.2109375 C535.39450246 605.15406142 531.18288817 609.43329148 526.94628906 613.7421875 C522.09988502 618.67129468 517.21631288 623.43190961 511.97363281 627.9375 C508.12630849 631.36228581 504.55614221 635.07073276 500.94628906 638.7421875 C496.06970374 643.701991 491.15558414 648.49728094 485.87988281 653.03125 C482.58277036 655.94869496 479.5273057 659.10005713 476.44628906 662.2421875 C472.12537209 666.60966265 467.79928383 670.8485267 463.09863281 674.80859375 C459.31335948 678.20915691 455.77823641 681.87087128 452.21948242 685.50610352 C449.25505861 688.5145262 446.24240804 691.39320362 443.04003906 694.1484375 C438.61856902 697.96504363 434.53705677 702.07690672 430.44628906 706.2421875 C426.40713115 710.35491841 422.38491482 714.42311295 418.00878906 718.1796875 C413.23696516 722.28523904 408.85952963 726.7581084 404.44628906 731.2421875 C399.41694274 736.35226169 394.36560289 741.31581242 388.92480469 745.98632812 C385.26525313 749.23404466 381.87330949 752.75274411 378.44628906 756.2421875 C373.76301682 761.01076524 369.02662555 765.59194716 363.95996094 769.95117188 C360.29139352 773.2140975 356.88516307 776.74067462 353.44628906 780.2421875 C349.39680443 784.36543324 345.36269958 788.4423045 340.97753906 792.2109375 C336.39450246 796.15406142 332.18288817 800.43329148 327.94628906 804.7421875 C323.09988502 809.67129468 318.21631288 814.43190961 312.97363281 818.9375 C309.12630849 822.36228581 305.55614221 826.07073276 301.94628906 829.7421875 C297.09988502 834.67129468 292.21631288 839.43190961 286.97363281 843.9375 C283.12630849 847.36228581 279.55614221 851.07073276 275.94628906 854.7421875 C271.0898256 859.68152576 266.1960713 864.45369891 260.94238281 868.96875 C257.27833418 872.22408871 253.87923863 875.74670698 250.44628906 879.2421875 C246.39680443 883.36543324 242.36269958 887.4423045 237.97753906 891.2109375 C233.39450246 895.15406142 229.18288817 899.43329148 224.94628906 903.7421875 C220.09988502 908.67129468 215.21631288 913.43190961 209.97363281 917.9375 C206.12630849 921.36228581 202.55614221 925.07073276 198.94628906 928.7421875 C194.09988502 933.67129468 189.21631288 938.43190961 183.97363281 942.9375 C180.12630849 946.36228581 176.55614221 950.07073276 172.94628906 953.7421875 C168.0898256 958.68152576 163.1960713 963.45369891 157.94238281 967.96875 C154.27833418 971.22408871 150.87923863 974.74670698 147.44628906 978.2421875 C143.44846478 982.3128319 139.47395626 986.3466267 135.13378906 990.0546875 C129.60850114 994.80849962 124.56163933 1000.05733069 119.44628906 1005.2421875 C113.73320218 1011.03290287 108.04451595 1016.76813828 101.85449219 1022.05664062 C98.21270184 1025.2734933 94.84954155 1028.77694498 91.44628906 1032.2421875 C87.39680443 1036.36543324 83.36269958 1040.4423045 78.97753906 1044.2109375 C74.39450246 1048.15406142 70.18288817 1052.43329148 65.94628906 1056.7421875 C61.13415293 1061.63644199 56.32204242 1066.42655468 51.06347656 1070.84375 C48.94887408 1072.57681237 48.94887408 1072.57681237 47.80786133 1074.4768219 C44.98273221 1078.26745905 42.83882618 1079.58637109 38.12304688 1080.40963745 C33.13024336 1080.7801019 28.13715104 1080.74330021 23.13378906 1080.70703125 C21.27725397 1080.71429319 19.42072552 1080.72348392 17.56420898 1080.73451233 C13.68042279 1080.74931482 9.79776293 1080.73840319 5.9140625 1080.7097168 C0.94665574 1080.67542584 -4.01760944 1080.70878844 -8.98475647 1080.76192379 C-12.81634345 1080.79479031 -16.64718485 1080.78983028 -20.47885132 1080.7737751 C-22.30962282 1080.77096246 -24.14045555 1080.78022167 -25.97109985 1080.80198479 C-40.23787417 1080.94200165 -40.23787417 1080.94200165 -44.6171875 1078.04837036 C-46.38527874 1076.03588135 -47.7154324 1074.05563072 -49.05371094 1071.7421875 C-50.49212295 1070.2436412 -51.94720795 1068.76064733 -53.42871094 1067.3046875 C-54.18667969 1066.55445313 -54.94464844 1065.80421875 -55.72558594 1065.03125 C-56.49386719 1064.27585937 -57.26214844 1063.52046875 -58.05371094 1062.7421875 C-62.98281812 1057.89578346 -67.74343305 1053.01221131 -72.24902344 1047.76953125 C-75.67380925 1043.92220693 -79.3822562 1040.35204065 -83.05371094 1036.7421875 C-88.01351444 1031.86560218 -92.80880437 1026.95148258 -97.34277344 1021.67578125 C-100.26006208 1018.37884545 -103.40985964 1015.32121712 -106.55371094 1012.2421875 C-110.34784066 1008.52628726 -114.0550766 1004.79906286 -117.52246094 1000.7734375 C-121.16437584 996.5497994 -125.07405393 992.64560587 -129.05371094 988.7421875 C-133.01238467 984.85935043 -136.90429432 980.97878088 -140.52246094 976.7734375 C-144.31513141 972.37015568 -148.409443 968.31231826 -152.55371094 964.2421875 C-156.67695668 960.19270286 -160.75382794 956.15859802 -164.52246094 951.7734375 C-168.46558486 947.19040089 -172.74481491 942.97878661 -177.05371094 938.7421875 C-181.98281812 933.89578346 -186.74343305 929.01221131 -191.24902344 923.76953125 C-194.67380925 919.92220693 -198.3822562 916.35204065 -202.05371094 912.7421875 C-206.9930492 907.88572404 -211.76522234 902.99196974 -216.28027344 897.73828125 C-219.53561214 894.07423262 -223.05823041 890.67513707 -226.55371094 887.2421875 C-230.67695668 883.19270286 -234.75382794 879.15859802 -238.52246094 874.7734375 C-242.46558486 870.19040089 -246.74481491 865.97878661 -251.05371094 861.7421875 C-255.98281812 856.89578346 -260.74343305 852.01221131 -265.24902344 846.76953125 C-268.67380925 842.92220693 -272.3822562 839.35204065 -276.05371094 835.7421875 C-280.98281812 830.89578346 -285.74343305 826.01221131 -290.24902344 820.76953125 C-293.67380925 816.92220693 -297.3822562 813.35204065 -301.05371094 809.7421875 C-305.9930492 804.88572404 -310.76522234 799.99196974 -315.28027344 794.73828125 C-318.53561214 791.07423262 -322.05823041 787.67513707 -325.55371094 784.2421875 C-329.67695668 780.19270286 -333.75382794 776.15859802 -337.52246094 771.7734375 C-341.46558486 767.19040089 -345.74481491 762.97878661 -350.05371094 758.7421875 C-354.98281812 753.89578346 -359.74343305 749.01221131 -364.24902344 743.76953125 C-367.67380925 739.92220693 -371.3822562 736.35204065 -375.05371094 732.7421875 C-383.62066639 724.31897291 -383.62066639 724.31897291 -387.42871094 719.8671875 C-392.00743007 714.53941524 -397.05508289 709.67045953 -402.05371094 704.7421875 C-407.63054004 699.24385264 -413.13144707 693.74825966 -418.22558594 687.79296875 C-422.12888354 683.41426952 -426.37808573 679.35875153 -430.55371094 675.2421875 C-435.99492729 669.87793319 -441.33081936 664.5211158 -446.30175781 658.71679688 C-449.70342964 654.88280555 -453.40039592 651.33420528 -457.05371094 647.7421875 C-461.9930492 642.88572404 -466.76522234 637.99196974 -471.28027344 632.73828125 C-474.53561214 629.07423262 -478.05823041 625.67513707 -481.55371094 622.2421875 C-485.66644185 618.20302959 -489.73463639 614.18081326 -493.49121094 609.8046875 C-497.59676248 605.03286359 -502.06963184 600.65542807 -506.55371094 596.2421875 C-515.65152525 587.28809853 -515.65152525 587.28809853 -519.49121094 582.8046875 C-523.89647581 577.67288649 -528.7403321 572.9874846 -533.55371094 568.2421875 C-539.03706937 562.83638718 -544.41900194 557.43801267 -549.42724609 551.58691406 C-552.6706836 547.90822691 -556.24534364 544.54995116 -559.77441406 541.1484375 C-561.23652216 539.71519797 -562.64988785 538.23256208 -564.05371094 536.7421875 C-564.05371094 536.0821875 -564.05371094 535.4221875 -564.05371094 534.7421875 C-562.72558594 533.4375 -562.72558594 533.4375 -560.80371094 531.8671875 C-556.50100569 528.22056851 -552.55170289 524.30564759 -548.61914062 520.27001953 C-545.92312265 517.52739243 -543.15858464 514.93689579 -540.24121094 512.4296875 C-535.61300877 508.42620464 -531.34203786 504.10369406 -527.05371094 499.7421875 C-522.19724748 494.80284924 -517.30349317 490.03067609 -512.04980469 485.515625 C-508.38575605 482.26028629 -504.9866605 478.73766802 -501.55371094 475.2421875 C-497.52488233 471.13997403 -493.51456964 467.08042628 -489.14746094 463.3359375 C-484.18688038 459.06798471 -479.64346958 454.40148794 -475.05371094 449.7421875 C-465.5678842 440.11263612 -465.5678842 440.11263612 -461.11621094 436.3046875 C-455.80576219 431.75135092 -450.96109641 426.71963082 -446.05371094 421.7421875 C-440.53504362 416.14473568 -435.01944043 410.62090468 -429.04199219 405.5078125 C-425.02918822 401.94437951 -421.31661504 398.06549134 -417.55371094 394.2421875 C-412.53443584 389.14234619 -407.49325469 384.19035267 -402.06347656 379.52929688 C-398.22061903 376.11217866 -394.65762407 372.40760085 -391.05371094 368.7421875 C-386.2073069 363.81308032 -381.32373475 359.05246539 -376.08105469 354.546875 C-372.23373037 351.12208919 -368.66356408 347.41364224 -365.05371094 343.7421875 C-356.63179136 335.17654916 -356.63179136 335.17654916 -352.08496094 331.2734375 C-347.32204579 327.18015993 -342.95656968 322.71571813 -338.55371094 318.2421875 C-333.53443584 313.14234619 -328.49325469 308.19035267 -323.06347656 303.52929688 C-319.22061903 300.11217866 -315.65762407 296.40760085 -312.05371094 292.7421875 C-307.2073069 287.81308032 -302.32373475 283.05246539 -297.08105469 278.546875 C-293.23373037 275.12208919 -289.66356408 271.41364224 -286.05371094 267.7421875 C-277.63092867 259.17567174 -277.63092867 259.17567174 -273.14746094 255.3359375 C-268.00691553 250.91812224 -263.30944821 246.06615629 -258.55371094 241.2421875 C-253.19954651 235.81120579 -247.85284886 230.48687387 -242.05957031 225.52539062 C-238.042396 221.95413439 -234.32258085 218.07155291 -230.55371094 214.2421875 C-225.52436461 209.13211331 -220.47302477 204.16856258 -215.03222656 199.49804688 C-211.37267501 196.25033034 -207.98073136 192.73163089 -204.55371094 189.2421875 C-200.52488233 185.13997403 -196.51456964 181.08042628 -192.14746094 177.3359375 C-187.18688038 173.06798471 -182.64346958 168.40148794 -178.05371094 163.7421875 C-172.83158344 158.44093686 -167.6022197 153.26250776 -161.95214844 148.41796875 C-158.6643223 145.51575185 -155.6209293 142.37397888 -152.55371094 139.2421875 C-148.87885865 135.48996991 -145.19884205 131.81862271 -141.20996094 128.3984375 C-136.23164757 124.10578902 -131.66427711 119.42261074 -127.05371094 114.7421875 C-121.84166636 109.45117255 -116.62244255 104.28430276 -110.98339844 99.44921875 C-107.51184778 96.37823163 -104.29788554 93.04972489 -101.05371094 89.7421875 C-97.18116742 85.79400837 -93.31243096 81.91094391 -89.11621094 78.3046875 C-84.52417584 74.34943852 -80.30066083 70.06161094 -76.05371094 65.7421875 C-67.63179136 57.17654916 -67.63179136 57.17654916 -63.08496094 53.2734375 C-58.32204579 49.18015993 -53.95656968 44.71571813 -49.55371094 40.2421875 C-44.5383832 35.14635691 -39.50182036 30.19595608 -34.07666016 25.53808594 C-30.17197827 22.07165582 -26.53685285 18.32782803 -22.86621094 14.6171875 C-22.08568359 13.83214844 -21.30515625 13.04710937 -20.50097656 12.23828125 C-19.04837563 10.77705588 -17.59681568 9.31479424 -16.14672852 7.85107422 C-15.45603271 7.1551416 -14.76533691 6.45920898 -14.05371094 5.7421875 C-13.37227524 4.88899933 -12.69083954 4.03581116 -11.98875427 3.1567688 C-7.97096318 -0.14855999 -5.05849204 -0.00415074 0 0 Z " fill="#2B2B2B" transform="translate(934.0537109375,-0.7421875)"/>
<path d="M0 0 C0 109.56 0 219.12 0 332 C-114.18 332 -228.36 332 -346 332 C-344.35 330.35 -342.7 328.7 -341 327 C-339.25347571 325.24261528 -337.50740358 323.4847811 -335.76171875 321.7265625 C-334.2534077 320.21086753 -332.7446095 318.69565937 -331.2355957 317.18066406 C-330.2079943 316.1480389 -329.18129286 315.11451732 -328.15551758 314.08007812 C-322.89452717 308.77601331 -317.61541318 303.5702208 -311.93286133 298.71240234 C-308.11105598 295.32650583 -304.57824545 291.63930766 -301 288 C-296.14353654 283.06066174 -291.24978224 278.28848859 -285.99609375 273.7734375 C-282.33204512 270.51809879 -278.93294957 266.99548052 -275.5 263.5 C-271.45051536 259.37675426 -267.41641052 255.299883 -263.03125 251.53125 C-258.44821339 247.58812608 -254.23659911 243.30889602 -250 239 C-245.15359596 234.07089282 -240.27002381 229.31027789 -235.02734375 224.8046875 C-231.18001943 221.37990169 -227.60985315 217.67145474 -224 214 C-219.15359596 209.07089282 -214.27002381 204.31027789 -209.02734375 199.8046875 C-205.18001943 196.37990169 -201.60985315 192.67145474 -198 189 C-193.14353654 184.06066174 -188.24978224 179.28848859 -182.99609375 174.7734375 C-179.33204512 171.51809879 -175.93294957 167.99548052 -172.5 164.5 C-168.45051536 160.37675426 -164.41641052 156.299883 -160.03125 152.53125 C-155.44821339 148.58812608 -151.23659911 144.30889602 -147 140 C-142.15359596 135.07089282 -137.27002381 130.31027789 -132.02734375 125.8046875 C-128.18001943 122.37990169 -124.60985315 118.67145474 -121 115 C-116.15359596 110.07089282 -111.27002381 105.31027789 -106.02734375 100.8046875 C-102.18001943 97.37990169 -98.60985315 93.67145474 -95 90 C-86.57678541 81.43304454 -86.57678541 81.43304454 -82.125 77.625 C-76.79722774 73.04628087 -71.92827203 67.99862805 -67 63 C-61.47116597 57.39223632 -55.94555593 51.85694194 -49.95703125 46.734375 C-46.12743832 43.34048426 -42.586062 39.64725759 -39 36 C-30.57824189 27.43452588 -30.57824189 27.43452588 -26.01953125 23.51953125 C-21.32717106 19.48770652 -17.02364559 15.09549556 -12.6875 10.6875 C-11.11042246 9.08492403 -9.53109404 7.48455913 -7.94921875 5.88671875 C-7.26174561 5.18764404 -6.57427246 4.48856934 -5.8659668 3.76831055 C-1.88954853 0 -1.88954853 0 0 0 Z " fill="#3E3E3E" transform="translate(1912,747)"/>
<path d="M0 0 C111.21 0 222.42 0 337 0 C331.12721559 6.85158181 325.18910683 13.34164794 318.3125 19.1875 C313.7134421 23.12296638 309.50608054 27.44001763 305.2746582 31.76245117 C302.30972742 34.7713507 299.29664712 37.65056172 296.09375 40.40625 C291.67227996 44.22285613 287.59076771 48.33471922 283.5 52.5 C278.81672776 57.26857774 274.08033648 61.84975966 269.01367188 66.20898438 C265.34510446 69.47191 261.93887401 72.99848712 258.5 76.5 C254.45051536 80.62324574 250.41641052 84.700117 246.03125 88.46875 C241.44821339 92.41187392 237.23659911 96.69110398 233 101 C228.15359596 105.92910718 223.27002381 110.68972211 218.02734375 115.1953125 C214.18001943 118.62009831 210.60985315 122.32854526 207 126 C202.10328878 130.98027284 197.16880284 135.79867983 191.87109375 140.3515625 C188.94187588 142.93220956 186.22696999 145.70907392 183.5 148.5 C180.1122034 151.93037996 176.74777911 155.32284475 173.0625 158.4375 C168.5341644 162.27360595 164.42211915 166.52581436 160.27368164 170.76342773 C157.31926736 173.76167981 154.31806252 176.6308631 151.125 179.375 C146.51491535 183.35441796 142.26764344 187.65952988 138 192 C133.14353654 196.93933826 128.24978224 201.71151141 122.99609375 206.2265625 C119.33204512 209.48190121 115.93294957 213.00451948 112.5 216.5 C107.81672776 221.26857774 103.08033648 225.84975966 98.01367188 230.20898438 C94.34510446 233.47191 90.93887401 236.99848712 87.5 240.5 C82.81672776 245.26857774 78.08033648 249.84975966 73.01367188 254.20898438 C69.34510446 257.47191 65.93887401 260.99848712 62.5 264.5 C57.78658234 269.29927226 53.01956419 273.91513651 47.91992188 278.30273438 C44.80202748 281.05904183 41.90992127 284.02753517 39 287 C34.85736252 291.19070606 30.69060073 295.22690628 26.1875 299.03125 C23.00176375 301.89841263 20.0145426 304.95466454 17 308 C5.8317216 319.26011305 5.8317216 319.26011305 2 322 C1.34 322 0.68 322 0 322 C0 215.74 0 109.48 0 0 Z " fill="#0B0B0B" transform="translate(0,0)"/>
<path d="M0 0 C18.15 0 36.3 0 55 0 C55 112.86 55 225.72 55 342 C50.63439957 338.25805678 46.53109862 334.66795479 42.5 330.625 C41.6234375 329.75101562 40.746875 328.87703125 39.84375 327.9765625 C37.72242076 325.80287323 35.72872618 323.54610503 33.75 321.2421875 C29.5690881 316.42182861 25.04556341 311.97375356 20.5 307.5 C15.38992581 302.47065368 10.42637508 297.41931383 5.75585938 291.97851562 C2.50814284 288.31896407 -1.01055661 284.92702043 -4.5 281.5 C-8.61273091 277.46084209 -12.68092545 273.43862576 -16.4375 269.0625 C-20.54305154 264.29067609 -25.0159209 259.91324057 -29.5 255.5 C-38.59737328 246.5463451 -38.59737328 246.5463451 -42.46875 242.03125 C-46.71188046 237.08832335 -51.36183726 232.56893643 -56 228 C-61.28077996 222.79803766 -66.43609101 217.58895299 -71.26171875 211.9609375 C-74.50177675 208.30586083 -78.01659875 204.92108638 -81.5 201.5 C-85.62324574 197.45051536 -89.700117 193.41641052 -93.46875 189.03125 C-97.41187392 184.44821339 -101.69110398 180.23659911 -106 176 C-114.56736705 167.57638072 -114.56736705 167.57638072 -118.4375 163.046875 C-121.1085737 159.93473485 -123.9286709 157.05638823 -126.875 154.203125 C-127.71417969 153.38972656 -128.55335937 152.57632813 -129.41796875 151.73828125 C-131.16334886 150.05627349 -132.9161805 148.38196913 -134.67578125 146.71484375 C-135.50464844 145.90660156 -136.33351563 145.09835938 -137.1875 144.265625 C-137.94417969 143.54149414 -138.70085937 142.81736328 -139.48046875 142.07128906 C-141 140 -141 140 -140.89086914 137.90649414 C-139.4198703 134.75850018 -136.9084764 132.56193031 -134.4375 130.1875 C-133.93669922 129.69185547 -133.43589844 129.19621094 -132.91992188 128.68554688 C-130.10636772 125.92876052 -127.21166238 123.30340017 -124.22265625 120.73828125 C-119.23182099 116.40835737 -114.63447761 111.70469696 -110 107 C-104.79803766 101.71922004 -99.58895299 96.56390899 -93.9609375 91.73828125 C-90.30586083 88.49822325 -86.92108638 84.98340125 -83.5 81.5 C-79.50217571 77.4293556 -75.5276672 73.3955608 -71.1875 69.6875 C-65.66221208 64.93368788 -60.61535027 59.68485681 -55.5 54.5 C-49.78691312 48.70928463 -44.09822688 42.97404922 -37.90820312 37.68554688 C-34.26641278 34.4686942 -30.90325249 30.96524252 -27.5 27.5 C-22.75562439 22.66920589 -17.95866574 18.01181341 -12.82568359 13.59423828 C-10.29801923 11.38701064 -7.93186339 9.0642561 -5.5625 6.6875 C-4.29599609 5.42486328 -4.29599609 5.42486328 -3.00390625 4.13671875 C-0.96340293 2.1648487 -0.96340293 2.1648487 0 0 Z " fill="#0F0F0F" transform="translate(1857,0)"/>
<path d="M0 0 C1.65 1.65 3.3 3.3 5 5 C6.61148434 6.60075871 8.22347696 8.20100587 9.8359375 9.80078125 C11.68236349 11.63794865 13.52871546 13.47519045 15.375 15.3125 C16.29539062 16.22451172 17.21578125 17.13652344 18.1640625 18.07617188 C22.71315945 22.60902205 27.10560933 27.18756759 31.28369141 32.06323242 C34.5157942 35.71049721 38.0245466 39.08671929 41.5 42.5 C45.62324574 46.54948464 49.700117 50.58358948 53.46875 54.96875 C57.41187392 59.55178661 61.69110398 63.76340089 66 68 C70.92910718 72.84640404 75.68972211 77.72997619 80.1953125 82.97265625 C83.62009831 86.81998057 87.32854526 90.39014685 91 94 C95.93933826 98.85646346 100.71151141 103.75021776 105.2265625 109.00390625 C108.48190121 112.66795488 112.00451948 116.06705043 115.5 119.5 C119.62324574 123.54948464 123.700117 127.58358948 127.46875 131.96875 C131.41187392 136.55178661 135.69110398 140.76340089 140 145 C148.56613242 153.42240537 148.56613242 153.42240537 152.48046875 157.98828125 C157.22767131 163.51595841 162.52421012 168.50124778 167.76757812 173.55273438 C168.54166016 174.31263672 169.31574219 175.07253906 170.11328125 175.85546875 C170.81235596 176.53246826 171.51143066 177.20946777 172.23168945 177.90698242 C174.14303637 180.16930151 175.05710039 182.20900499 176 185 C173.00428676 188.02510958 170.00265195 191.04427875 167 194.0625 C165.74123047 195.33383789 165.74123047 195.33383789 164.45703125 196.63085938 C160.08810344 201.01672101 155.65754185 205.22838731 150.9609375 209.25952148 C147.30753955 212.50218508 143.92144419 216.01623442 140.5 219.5 C136.45051536 223.62324574 132.41641052 227.700117 128.03125 231.46875 C123.44821339 235.41187392 119.23659911 239.69110398 115 244 C110.15359596 248.92910718 105.27002381 253.68972211 100.02734375 258.1953125 C96.18001943 261.62009831 92.60985315 265.32854526 89 269 C84.15359596 273.92910718 79.27002381 278.68972211 74.02734375 283.1953125 C70.18001943 286.62009831 66.60985315 290.32854526 63 294 C54.57537586 302.56838906 54.57537586 302.56838906 50.2265625 306.2734375 C44.28433845 311.37980636 38.87727771 317.05515046 33.375 322.625 C31.17747088 324.84934382 28.97649157 327.0701921 26.7734375 329.2890625 C26.28265717 329.78814117 25.79187683 330.28721985 25.28622437 330.80142212 C23.87693176 332.22053078 22.43864974 333.61066131 21 335 C20.20029785 335.94278809 19.4005957 336.88557617 18.57666016 337.85693359 C15 340 15 340 0 340 C0 227.8 0 115.6 0 0 Z " fill="#3D3D3D" transform="translate(0,739)"/>
<path d="M0 0 C4.40483729 3.34968615 7.97521911 7.39271054 10.0546875 12.5625 C10.1796875 15.3125 10.1796875 15.3125 10.0546875 17.5625 C7.78547214 17.69739391 5.5139808 17.79443995 3.2421875 17.875 C1.34533203 17.96201172 1.34533203 17.96201172 -0.58984375 18.05078125 C-1.69714844 17.88964844 -2.80445313 17.72851562 -3.9453125 17.5625 C-5.69921875 15.16015625 -5.69921875 15.16015625 -6.9453125 12.5625 C-12.42728358 9.27331735 -16.7675603 9.06451121 -22.9453125 10.5625 C-27.66860365 12.5134246 -29.01313744 14.91878516 -30.9453125 19.5625 C-31.7019799 25.88169532 -32.27876679 33.09809355 -29.1953125 38.875 C-26.24983958 42.39320376 -24.46435526 43.41311776 -19.88671875 43.86328125 C-18.77167969 43.86714844 -17.65664063 43.87101563 -16.5078125 43.875 C-15.39535156 43.89175781 -14.28289063 43.90851562 -13.13671875 43.92578125 C-9.54914794 43.51740416 -7.74465759 42.8286365 -4.9453125 40.5625 C-4.2853125 38.9125 -3.6253125 37.2625 -2.9453125 35.5625 C-7.8953125 35.2325 -12.8453125 34.9025 -17.9453125 34.5625 C-17.9453125 30.6025 -17.9453125 26.6425 -17.9453125 22.5625 C-8.7053125 22.5625 0.5346875 22.5625 10.0546875 22.5625 C10.0546875 33.7825 10.0546875 45.0025 10.0546875 56.5625 C6.4246875 56.5625 2.7946875 56.5625 -0.9453125 56.5625 C-0.9453125 55.2425 -0.9453125 53.9225 -0.9453125 52.5625 C-1.91017578 53.10390625 -1.91017578 53.10390625 -2.89453125 53.65625 C-10.9986359 57.81812971 -18.62378855 59.33895217 -27.55859375 56.828125 C-35.98032535 53.37450734 -40.94451196 48.50253124 -44.80078125 40.28125 C-47.51627596 31.45820917 -47.79029928 20.43188442 -44.0078125 11.875 C-40.03962924 5.46313327 -33.79677163 -0.78835814 -26.43359375 -3.03125 C-17.37462548 -4.51026523 -8.10455258 -4.80269782 0 0 Z " fill="#FAFAFA" transform="translate(789.9453125,515.4375)"/>
<path d="M0 0 C1.77697266 -0.02513672 1.77697266 -0.02513672 3.58984375 -0.05078125 C8.07600533 0.41852474 11.35776553 1.7575878 14.70703125 4.8125 C18.54412936 9.74041195 19.18705449 12.78952255 19.16015625 18.94921875 C19.15693359 20.24794922 19.15371094 21.54667969 19.15039062 22.88476562 C19.14203531 24.25651108 19.13357037 25.62825587 19.125 27 C19.11998335 28.38346195 19.11542073 29.76692563 19.11132812 31.15039062 C19.09952529 34.53780395 19.08306019 37.92513033 19.0625 41.3125 C15.1025 41.3125 11.1425 41.3125 7.0625 41.3125 C6.7325 40.3225 6.4025 39.3325 6.0625 38.3125 C5.299375 38.9725 4.53625 39.6325 3.75 40.3125 C-0.76865904 43.31778392 -5.71937457 43.09560649 -10.9375 42.3125 C-14.84825925 40.32281547 -16.51439098 38.94716354 -18.9375 35.3125 C-19.597575 30.35426219 -19.693531 25.82456199 -17.4375 21.3125 C-10.73012215 15.94659772 -3.21606752 15.71263076 5.0625 15.3125 C5.3925 13.9925 5.7225 12.6725 6.0625 11.3125 C-0.00089771 10.1809711 -0.00089771 10.1809711 -5.9375 11.3125 C-6.5975 12.6325 -7.2575 13.9525 -7.9375 15.3125 C-11.2375 15.3125 -14.5375 15.3125 -17.9375 15.3125 C-18.38546936 12.25137604 -18.42631708 10.10744494 -16.77734375 7.42578125 C-11.89479295 1.46931902 -7.74532298 0.02522907 0 0 Z " fill="#F9F9F9" transform="translate(826.9375,530.6875)"/>
<path d="M0 0 C0.70858154 0.00499512 1.41716309 0.00999023 2.1472168 0.01513672 C6.03362042 0.14550769 9.10799063 0.45166759 12.375 2.625 C17.09573299 7.67508646 18.44350737 11.78142506 18.35546875 18.6484375 C18.35122391 19.30582916 18.34697906 19.96322083 18.34260559 20.64053345 C18.32594977 22.71912391 18.2883262 24.79670774 18.25 26.875 C18.23493605 28.29295464 18.22125065 29.71092464 18.20898438 31.12890625 C18.17609038 34.5862589 18.12440165 38.04303103 18.0625 41.5 C14.4325 41.5 10.8025 41.5 7.0625 41.5 C7.0625 40.51 7.0625 39.52 7.0625 38.5 C5.969375 39.16 4.87625 39.82 3.75 40.5 C-1.40200598 43.03946394 -6.29448144 43.63195766 -11.9375 42.5 C-15.96508038 40.24200678 -18.47141718 37.89824846 -19.9375 33.5 C-20.52245437 28.4861054 -20.54881628 25.65979836 -17.375 21.625 C-13.2496386 17.43279247 -9.44713737 16.57934451 -3.6015625 16.39453125 C-0.37669791 16.37704283 2.83894302 16.41274583 6.0625 16.5 C5.26749563 14.00417668 5.26749563 14.00417668 4.0625 11.5 C0.6986791 10.37872637 -1.32677958 10.33714122 -4.75 11.25 C-7.26231735 12.36312728 -7.26231735 12.36312728 -7.9375 15.5 C-11.5675 15.5 -15.1975 15.5 -18.9375 15.5 C-18.52399697 10.22783638 -17.76715008 7.22614602 -13.9375 3.5 C-9.32088694 0.69462451 -5.32046398 -0.04882883 0 0 Z " fill="#F9F9F9" transform="translate(893.9375,530.5)"/>
<path d="M0 0 C4.62 0 9.24 0 14 0 C16.64 7.59 19.28 15.18 22 23 C24.79989536 16.31136107 27.57342499 9.62074807 30.203125 2.86328125 C31 1 31 1 32 0 C36.33315059 -0.1438629 40.66512361 -0.04208618 45 0 C41.08102227 10.74191979 36.87026124 21.32440913 32.35839844 31.83105469 C31.36203597 34.15524082 30.37617984 36.48371362 29.390625 38.8125 C28.74802192 40.31537203 28.10481531 41.81798617 27.4609375 43.3203125 C27.17229828 44.00473419 26.88365906 44.68915588 26.58627319 45.39431763 C23.97546815 51.42848423 21.33896766 57.293891 15 60 C11.703125 60.328125 11.703125 60.328125 8.25 60.25 C7.10015625 60.23453125 5.9503125 60.2190625 4.765625 60.203125 C2 60 2 60 1 59 C0.92794489 57.31391034 0.91613932 55.62499341 0.9375 53.9375 C0.94652344 53.01839844 0.95554687 52.09929688 0.96484375 51.15234375 C0.97644531 50.44207031 0.98804688 49.73179687 1 49 C2.03060547 48.94392578 2.03060547 48.94392578 3.08203125 48.88671875 C3.98308594 48.82097656 4.88414062 48.75523437 5.8125 48.6875 C6.70582031 48.62949219 7.59914063 48.57148437 8.51953125 48.51171875 C11.43218074 47.91084145 12.34046831 47.45526928 14 45 C15.74641302 39.24013215 14.03165268 35.43506874 11.81640625 30.13671875 C11.31487282 28.88783623 11.31487282 28.88783623 10.8032074 27.61372375 C9.73660942 24.96588368 8.65017984 22.32674082 7.5625 19.6875 C6.48292601 17.02874025 5.40737947 14.36838015 4.33250427 11.7077179 C3.66291836 10.05467297 2.9897133 8.40308873 2.31263733 6.75309753 C0 1.10483928 0 1.10483928 0 0 Z " fill="#FAFAFA" transform="translate(961,532)"/>
<path d="M0 0 C5.15134391 -0.58984854 9.87255564 -0.91083129 15 0 C18.06532929 2.92669631 19.57822032 6.03882278 21 10 C23.21116694 7.94089039 24.7388771 5.95998323 26.1875 3.3125 C26.785625 2.219375 27.38375 1.12625 28 0 C32.62 0 37.24 0 42 0 C39.76139651 5.59650873 39.76139651 5.59650873 37.80078125 8.375 C37.39666016 8.96796875 36.99253906 9.5609375 36.57617188 10.171875 C35.72991725 11.39613207 34.87564405 12.61488297 34.01367188 13.828125 C32.2883764 16.3841183 31.02362982 18.32547616 30.9140625 21.453125 C32.51390359 25.2052703 34.72841907 28.41743327 37.0625 31.75 C42 38.90364939 42 38.90364939 42 40 C36.84865609 40.58984854 32.12744436 40.91083129 27 40 C23.93467071 37.07330369 22.42177968 33.96117722 21 30 C20.74089844 30.721875 20.48179687 31.44375 20.21484375 32.1875 C18.758132 35.39493872 17.56074174 37.5550707 15 40 C9.87255564 40.91083129 5.15134391 40.58984854 0 40 C1.05990633 38.31086973 2.12307446 36.62378609 3.1875 34.9375 C3.82042969 33.93460938 4.45335937 32.93171875 5.10546875 31.8984375 C6.65492655 29.5279268 8.26732648 27.29789288 10 25.0625 C12.24596388 22.33379574 12.24596388 22.33379574 11.78149414 20.06323242 C10.91826576 17.78421242 9.84589901 15.95490495 8.49609375 13.92578125 C8.00302734 13.17619141 7.50996094 12.42660156 7.00195312 11.65429688 C6.48568359 10.88150391 5.96941406 10.10871094 5.4375 9.3125 C4.41345838 7.76818941 3.39121907 6.22268163 2.37109375 4.67578125 C1.91661865 3.99427002 1.46214355 3.31275879 0.99389648 2.6105957 C0 1 0 1 0 0 Z " fill="#FAFAFA" transform="translate(917,532)"/>
<path d="M0 0 C1.4540625 0.0309375 1.4540625 0.0309375 2.9375 0.0625 C3.2675 0.7225 3.5975 1.3825 3.9375 2.0625 C4.9275 1.4025 5.9175 0.7425 6.9375 0.0625 C10.32857371 -0.48352034 13.54624176 -0.48377924 16.9375 0.0625 C19.76174288 2.25272918 21.35258603 3.89267207 22.9375 7.0625 C23.65660796 14.17105901 23.45142888 19.39115346 18.9375 25.0625 C16.05083787 27.64254776 13.4904843 28.98239598 9.58984375 29.18359375 C3.69737548 28.73327504 3.69737548 28.73327504 1.171875 26.50390625 C0.76453125 26.02824219 0.3571875 25.55257812 -0.0625 25.0625 C-0.19527344 26.04992187 -0.32804687 27.03734375 -0.46484375 28.0546875 C-0.64144531 29.33601562 -0.81804687 30.61734375 -1 31.9375 C-1.26103516 33.85175781 -1.26103516 33.85175781 -1.52734375 35.8046875 C-2.0625 39.0625 -2.0625 39.0625 -3.0625 41.0625 C-5.3725 41.0625 -7.6825 41.0625 -10.0625 41.0625 C-8.9791457 31.36932992 -7.58576198 21.74853922 -6 12.125 C-5.8256543 11.0525 -5.65130859 9.98 -5.47167969 8.875 C-5.30442383 7.87597656 -5.13716797 6.87695312 -4.96484375 5.84765625 C-4.74042603 4.50006226 -4.74042603 4.50006226 -4.51147461 3.12524414 C-3.79375714 -0.17219735 -3.52466612 0.07193196 0 0 Z " fill="#B6B6B6" transform="translate(1076.0625,514.9375)"/>
<path d="M0 0 C4.29 0 8.58 0 13 0 C13 20.13 13 40.26 13 61 C8.71 61 4.42 61 0 61 C0 40.87 0 20.74 0 0 Z " fill="#F6F6F6" transform="translate(854,511)"/>
<path d="M0 0 C2.05078125 0.03255208 4.1015625 0.06510417 6.15234375 0.09765625 C6.944697 3.88917977 7.73609831 7.68090141 8.52734375 11.47265625 C8.7490625 12.53355469 8.97078125 13.59445312 9.19921875 14.6875 C9.85337063 17.82358106 10.50289996 20.96059739 11.15234375 24.09765625 C11.45229248 25.52102295 11.45229248 25.52102295 11.75830078 26.97314453 C11.93989746 27.8495459 12.12149414 28.72594727 12.30859375 29.62890625 C12.46908203 30.39525391 12.62957031 31.16160156 12.79492188 31.95117188 C13.31044816 35.04714665 13.28847156 37.96671672 13.15234375 41.09765625 C10.84234375 41.09765625 8.53234375 41.09765625 6.15234375 41.09765625 C5.82234375 38.12765625 5.49234375 35.15765625 5.15234375 32.09765625 C-0.12765625 32.09765625 -5.40765625 32.09765625 -10.84765625 32.09765625 C-11.50765625 34.07765625 -12.16765625 36.05765625 -12.84765625 38.09765625 C-13.50765625 39.08765625 -14.16765625 40.07765625 -14.84765625 41.09765625 C-16.79296875 41.390625 -16.79296875 41.390625 -18.97265625 41.28515625 C-20.25140625 41.22328125 -21.53015625 41.16140625 -22.84765625 41.09765625 C-22.19023438 39.7828125 -22.19023438 39.7828125 -21.51953125 38.44140625 C-21.21990479 37.84207275 -20.92027832 37.24273926 -20.61157227 36.62524414 C-19.9248199 35.25190478 -19.23780012 33.87869912 -18.55053711 32.50561523 C-16.25386827 27.9157551 -13.9642668 23.32245336 -11.6796875 18.7265625 C-11.13924805 17.64117188 -10.59880859 16.55578125 -10.04199219 15.4375 C-8.95903135 13.26250505 -7.87763611 11.08672983 -6.79785156 8.91015625 C-6.29995117 7.91113281 -5.80205078 6.91210938 -5.2890625 5.8828125 C-4.61919312 4.53521851 -4.61919312 4.53521851 -3.93579102 3.16040039 C-2.33368954 0.12334511 -2.33368954 0.12334511 0 0 Z " fill="#B6B6B6" transform="translate(1036.84765625,501.90234375)"/>
<path d="M0 0 C2.41906453 0.97669215 3.6622075 1.56086975 5.25 3.625 C7.78289963 11.64584883 4.8618666 20.10923203 3 28 C1.02 28 -0.96 28 -3 28 C-3.33 27.34 -3.66 26.68 -4 26 C-4.680625 26.495 -5.36125 26.99 -6.0625 27.5 C-9.77306506 29.39475662 -11.88370608 29.66154724 -16 29 C-19 26.375 -19 26.375 -21 23 C-21.17049953 18.82276158 -20.32437007 17.38412245 -17.625 14.1875 C-13.81357616 11.01131347 -11.1161554 10.88098641 -6.3125 10.9375 C-5.31863281 10.94652344 -4.32476563 10.95554687 -3.30078125 10.96484375 C-2.16189453 10.98224609 -2.16189453 10.98224609 -1 11 C-1 9.35 -1 7.7 -1 6 C-4.3 6 -7.6 6 -11 6 C-11.33 7.32 -11.66 8.64 -12 10 C-13.98 10 -15.96 10 -18 10 C-17.72298223 6.76812607 -16.95732976 4.93378755 -15.1875 2.1875 C-10.41139312 -1.09022041 -5.63660801 -0.73655813 0 0 Z " fill="#B5B5B5" transform="translate(1155,515)"/>
<path d="M0 0 C2.31 0 4.62 0 7 0 C6.34 5.28 5.68 10.56 5 16 C6.65 15.01 8.3 14.02 10 13 C14.05310471 13.0711071 16.21112288 13.35644235 19.375 15.9375 C22.4451 19.83416538 22.4266444 23.19313976 22 28 C21.13282295 32.69888958 20.0972133 37.34990554 19 42 C16.69 42 14.38 42 12 42 C12.09873413 41.09906616 12.09873413 41.09906616 12.19946289 40.17993164 C12.49276381 37.47469587 12.77773907 34.76864744 13.0625 32.0625 C13.16626953 31.11697266 13.27003906 30.17144531 13.37695312 29.19726562 C13.51713867 27.84858398 13.51713867 27.84858398 13.66015625 26.47265625 C13.74918213 25.64000244 13.83820801 24.80734863 13.92993164 23.94946289 C13.9530542 23.30614014 13.97617676 22.66281738 14 22 C12.82963695 20.60712194 12.82963695 20.60712194 9.5625 20.8125 C5.94967279 20.60435072 5.94967279 20.60435072 4 23 C3.35628015 25.02208548 3.35628015 25.02208548 2.9296875 27.3515625 C2.75566406 28.20234375 2.58164063 29.053125 2.40234375 29.9296875 C2.22832031 30.81914063 2.05429688 31.70859375 1.875 32.625 C1.69324219 33.5221875 1.51148438 34.419375 1.32421875 35.34375 C0.8760054 37.5612266 0.4349076 39.77988214 0 42 C-2.31 42 -4.62 42 -7 42 C-5.54811332 31.04938203 -4.06484267 20.10428576 -2.375 9.1875 C-2.25213623 8.37627686 -2.12927246 7.56505371 -2.00268555 6.72924805 C-1.11889145 1.11889145 -1.11889145 1.11889145 0 0 Z " fill="#B4B4B4" transform="translate(1109,501)"/>
<path d="M0 0 C2.31 0 4.62 0 7 0 C6.41117073 7.83685278 5.34860014 15.5102079 4 23.25 C3.64511595 25.31758533 3.29093085 27.38529077 2.9375 29.453125 C2.77378906 30.40896484 2.61007812 31.36480469 2.44140625 32.34960938 C1.90666286 35.56043587 1.43734237 38.77460003 1 42 C-1.31 42 -3.62 42 -6 42 C-5.6714643 32.81742706 -4.45684795 23.87495124 -3 14.8125 C-2.82178711 13.70140869 -2.64357422 12.59031738 -2.45996094 11.44555664 C-1.13949622 3.41848867 -1.13949622 3.41848867 0 0 Z " fill="#B4B4B4" transform="translate(1061,501)"/>
<path d="M0 0 C3.8125 0.5 3.8125 0.5 5.8125 2.5 C6.52499791 6.249989 6.5502351 9.93904119 4.90234375 13.42578125 C2.80400327 16.25280588 1.17613933 17.41836668 -2.25 18.1875 C-5.1875 17.5 -5.1875 17.5 -7.5625 15.375 C-9.50391332 11.94019182 -9.90047058 10.38172869 -9.1875 6.5 C-6.69523671 2.29430569 -4.93203787 0.12577146 0 0 Z " fill="#323232" transform="translate(1086.1875,520.5)"/>
<path d="M0 0 C-0.24224273 3.63364102 -0.37946238 5.4342157 -3.125 7.9375 C-6.7756828 9.28666538 -9.24199202 8.81055074 -13 8 C-13 6.02 -13 4.04 -13 2 C-11.39658445 1.66307215 -9.79223445 1.33058907 -8.1875 1 C-7.29417969 0.814375 -6.40085937 0.62875 -5.48046875 0.4375 C-3 0 -3 0 0 0 Z " fill="#3B3B3B" transform="translate(834,555)"/>
<path d="M0 0 C0.36 4.44 0.36 4.44 -1.125 6.75 C-3.75039586 8.50026391 -5.86738265 8.8082071 -9 9 C-11.375 8.0625 -11.375 8.0625 -13 7 C-12.67 5.35 -12.34 3.7 -12 2 C-10.37548581 1.66430703 -8.75037083 1.3315204 -7.125 1 C-6.22007812 0.814375 -5.31515625 0.62875 -4.3828125 0.4375 C-2 0 -2 0 0 0 Z " fill="#313131" transform="translate(900,555)"/>
<path d="M0 0 C2.26954631 3.40431947 2.36549949 5.16524202 2.625 9.1875 C2.69976563 10.27417969 2.77453125 11.36085938 2.8515625 12.48046875 C2.90054687 13.31191406 2.94953125 14.14335938 3 15 C-0.3 15 -3.6 15 -7 15 C-3.535 7.575 -3.535 7.575 0 0 Z " fill="#333333" transform="translate(1037,512)"/>
<path d="M0 0 C1.21236328 0.04060547 1.21236328 0.04060547 2.44921875 0.08203125 C3.06410156 0.11683594 3.67898438 0.15164063 4.3125 0.1875 C4 2.5625 4 2.5625 3.3125 5.1875 C-0.3316774 7.6169516 -2.39991272 7.34929575 -6.6875 7.1875 C-7.375 5.375 -7.375 5.375 -7.6875 3.1875 C-5.4301831 0.09854004 -3.71830823 -0.16166558 0 0 Z " fill="#333333" transform="translate(1148.6875,530.8125)"/>
</svg>
